<svg width="300" height="300" viewBox="0 0 300 300" fill="none" xmlns="http://www.w3.org/2000/svg">
<circle cx="150" cy="150" r="150" fill="#1D9300"/>
<path d="M74.8588 125V103.182H77.5009V122.656H87.6429V125H74.8588ZM98.2537 125.341C96.677 125.341 95.3169 124.993 94.1735 124.297C93.0371 123.594 92.16 122.614 91.5421 121.357C90.9313 120.092 90.6259 118.622 90.6259 116.946C90.6259 115.27 90.9313 113.793 91.5421 112.514C92.16 111.229 93.0194 110.227 94.1202 109.51C95.2282 108.786 96.5208 108.423 97.998 108.423C98.8503 108.423 99.6919 108.565 100.523 108.849C101.354 109.134 102.11 109.595 102.792 110.234C103.474 110.866 104.017 111.705 104.422 112.749C104.827 113.793 105.029 115.078 105.029 116.605V117.67H92.4157V115.497H102.472C102.472 114.574 102.288 113.75 101.919 113.026C101.556 112.301 101.038 111.729 100.363 111.31C99.6955 110.891 98.9071 110.682 97.998 110.682C96.9966 110.682 96.1301 110.93 95.3986 111.428C94.6742 111.918 94.1167 112.557 93.726 113.345C93.3354 114.134 93.1401 114.979 93.1401 115.881V117.33C93.1401 118.565 93.3532 119.613 93.7793 120.472C94.2125 121.325 94.8127 121.974 95.5797 122.422C96.3468 122.862 97.2381 123.082 98.2537 123.082C98.9142 123.082 99.5108 122.99 100.044 122.805C100.583 122.614 101.048 122.33 101.439 121.953C101.83 121.57 102.132 121.094 102.345 120.526L104.774 121.207C104.518 122.031 104.088 122.756 103.485 123.381C102.881 123.999 102.135 124.482 101.247 124.83C100.36 125.17 99.3617 125.341 98.2537 125.341ZM120.445 112.301L118.186 112.94C118.044 112.564 117.835 112.198 117.558 111.843C117.288 111.481 116.919 111.183 116.45 110.948C115.981 110.714 115.381 110.597 114.649 110.597C113.648 110.597 112.813 110.827 112.146 111.289C111.485 111.744 111.155 112.322 111.155 113.026C111.155 113.651 111.382 114.144 111.837 114.506C112.291 114.869 113.002 115.17 113.968 115.412L116.396 116.009C117.86 116.364 118.95 116.907 119.667 117.638C120.384 118.363 120.743 119.297 120.743 120.44C120.743 121.378 120.473 122.216 119.933 122.955C119.401 123.693 118.655 124.276 117.696 124.702C116.737 125.128 115.622 125.341 114.351 125.341C112.682 125.341 111.301 124.979 110.207 124.254C109.113 123.53 108.421 122.472 108.129 121.08L110.516 120.483C110.743 121.364 111.173 122.024 111.805 122.464C112.444 122.905 113.279 123.125 114.308 123.125C115.48 123.125 116.411 122.876 117.1 122.379C117.796 121.875 118.144 121.271 118.144 120.568C118.144 120 117.945 119.524 117.547 119.141C117.149 118.75 116.539 118.459 115.715 118.267L112.987 117.628C111.489 117.273 110.388 116.722 109.685 115.977C108.989 115.224 108.641 114.283 108.641 113.153C108.641 112.23 108.9 111.413 109.419 110.703C109.944 109.993 110.658 109.435 111.56 109.031C112.469 108.626 113.499 108.423 114.649 108.423C116.269 108.423 117.54 108.778 118.463 109.489C119.394 110.199 120.054 111.136 120.445 112.301ZM136.119 112.301L133.86 112.94C133.718 112.564 133.509 112.198 133.232 111.843C132.962 111.481 132.592 111.183 132.124 110.948C131.655 110.714 131.055 110.597 130.323 110.597C129.322 110.597 128.487 110.827 127.82 111.289C127.159 111.744 126.829 112.322 126.829 113.026C126.829 113.651 127.056 114.144 127.511 114.506C127.965 114.869 128.675 115.17 129.641 115.412L132.07 116.009C133.533 116.364 134.624 116.907 135.341 117.638C136.058 118.363 136.417 119.297 136.417 120.44C136.417 121.378 136.147 122.216 135.607 122.955C135.075 123.693 134.329 124.276 133.37 124.702C132.411 125.128 131.296 125.341 130.025 125.341C128.356 125.341 126.974 124.979 125.881 124.254C124.787 123.53 124.094 122.472 123.803 121.08L126.19 120.483C126.417 121.364 126.847 122.024 127.479 122.464C128.118 122.905 128.952 123.125 129.982 123.125C131.154 123.125 132.085 122.876 132.773 122.379C133.469 121.875 133.817 121.271 133.817 120.568C133.817 120 133.619 119.524 133.221 119.141C132.823 118.75 132.212 118.459 131.388 118.267L128.661 117.628C127.163 117.273 126.062 116.722 125.359 115.977C124.663 115.224 124.315 114.283 124.315 113.153C124.315 112.23 124.574 111.413 125.092 110.703C125.618 109.993 126.332 109.435 127.234 109.031C128.143 108.626 129.173 108.423 130.323 108.423C131.942 108.423 133.214 108.778 134.137 109.489C135.067 110.199 135.728 111.136 136.119 112.301ZM147.062 125.341C145.486 125.341 144.126 124.993 142.982 124.297C141.846 123.594 140.969 122.614 140.351 121.357C139.74 120.092 139.434 118.622 139.434 116.946C139.434 115.27 139.74 113.793 140.351 112.514C140.969 111.229 141.828 110.227 142.929 109.51C144.037 108.786 145.329 108.423 146.807 108.423C147.659 108.423 148.501 108.565 149.331 108.849C150.162 109.134 150.919 109.595 151.601 110.234C152.282 110.866 152.826 111.705 153.231 112.749C153.635 113.793 153.838 115.078 153.838 116.605V117.67H141.224V115.497H151.281C151.281 114.574 151.096 113.75 150.727 113.026C150.365 112.301 149.846 111.729 149.172 111.31C148.504 110.891 147.716 110.682 146.807 110.682C145.805 110.682 144.939 110.93 144.207 111.428C143.483 111.918 142.925 112.557 142.535 113.345C142.144 114.134 141.949 114.979 141.949 115.881V117.33C141.949 118.565 142.162 119.613 142.588 120.472C143.021 121.325 143.621 121.974 144.388 122.422C145.155 122.862 146.047 123.082 147.062 123.082C147.723 123.082 148.319 122.99 148.852 122.805C149.392 122.614 149.857 122.33 150.248 121.953C150.638 121.57 150.94 121.094 151.153 120.526L153.582 121.207C153.327 122.031 152.897 122.756 152.293 123.381C151.689 123.999 150.944 124.482 150.056 124.83C149.168 125.17 148.17 125.341 147.062 125.341ZM160.177 115.156V125H157.662V108.636H160.091V111.193H160.305C160.688 110.362 161.27 109.695 162.052 109.19C162.833 108.679 163.841 108.423 165.077 108.423C166.185 108.423 167.155 108.651 167.986 109.105C168.817 109.553 169.463 110.234 169.925 111.151C170.386 112.06 170.617 113.21 170.617 114.602V125H168.103V114.773C168.103 113.487 167.769 112.486 167.101 111.768C166.434 111.044 165.518 110.682 164.353 110.682C163.55 110.682 162.833 110.856 162.201 111.204C161.576 111.552 161.082 112.06 160.72 112.727C160.358 113.395 160.177 114.205 160.177 115.156ZM190.765 108.636V110.767H182.285V108.636H190.765ZM184.757 104.716H187.271V120.312C187.271 121.023 187.374 121.555 187.58 121.911C187.793 122.259 188.063 122.493 188.39 122.614C188.723 122.727 189.075 122.784 189.444 122.784C189.721 122.784 189.949 122.77 190.126 122.741C190.304 122.706 190.446 122.678 190.552 122.656L191.064 124.915C190.893 124.979 190.655 125.043 190.35 125.107C190.044 125.178 189.657 125.213 189.189 125.213C188.478 125.213 187.782 125.06 187.1 124.755C186.426 124.45 185.865 123.984 185.417 123.359C184.977 122.734 184.757 121.946 184.757 120.994V104.716ZM197.413 115.156V125H194.899V103.182H197.413V111.193H197.626C198.01 110.348 198.585 109.677 199.352 109.18C200.126 108.675 201.156 108.423 202.441 108.423C203.556 108.423 204.533 108.647 205.371 109.094C206.209 109.535 206.859 110.213 207.321 111.129C207.789 112.038 208.024 113.196 208.024 114.602V125H205.51V114.773C205.51 113.473 205.172 112.468 204.498 111.758C203.83 111.04 202.903 110.682 201.717 110.682C200.893 110.682 200.154 110.856 199.501 111.204C198.855 111.552 198.343 112.06 197.967 112.727C197.598 113.395 197.413 114.205 197.413 115.156ZM219.484 125.341C217.907 125.341 216.547 124.993 215.404 124.297C214.268 123.594 213.39 122.614 212.773 121.357C212.162 120.092 211.856 118.622 211.856 116.946C211.856 115.27 212.162 113.793 212.773 112.514C213.39 111.229 214.25 110.227 215.351 109.51C216.459 108.786 217.751 108.423 219.229 108.423C220.081 108.423 220.922 108.565 221.753 108.849C222.584 109.134 223.341 109.595 224.023 110.234C224.704 110.866 225.248 111.705 225.653 112.749C226.057 113.793 226.26 115.078 226.26 116.605V117.67H213.646V115.497H223.703C223.703 114.574 223.518 113.75 223.149 113.026C222.787 112.301 222.268 111.729 221.594 111.31C220.926 110.891 220.138 110.682 219.229 110.682C218.227 110.682 217.361 110.93 216.629 111.428C215.905 111.918 215.347 112.557 214.956 113.345C214.566 114.134 214.371 114.979 214.371 115.881V117.33C214.371 118.565 214.584 119.613 215.01 120.472C215.443 121.325 216.043 121.974 216.81 122.422C217.577 122.862 218.469 123.082 219.484 123.082C220.145 123.082 220.741 122.99 221.274 122.805C221.814 122.614 222.279 122.33 222.67 121.953C223.06 121.57 223.362 121.094 223.575 120.526L226.004 121.207C225.748 122.031 225.319 122.756 224.715 123.381C224.111 123.999 223.366 124.482 222.478 124.83C221.59 125.17 220.592 125.341 219.484 125.341ZM77.1853 161L72.1995 144.636H74.8415L78.3785 157.165H78.5489L82.0432 144.636H84.7279L88.1796 157.122H88.3501L91.887 144.636H94.529L89.5432 161H87.0716L83.4921 148.429H83.2364L79.6569 161H77.1853ZM102.668 161.384C101.631 161.384 100.69 161.188 99.8451 160.798C98.9999 160.4 98.3287 159.828 97.8316 159.082C97.3344 158.33 97.0858 157.42 97.0858 156.355C97.0858 155.418 97.2705 154.658 97.6398 154.075C98.0091 153.486 98.5028 153.024 99.1206 152.69C99.7385 152.357 100.42 152.108 101.166 151.945C101.919 151.774 102.675 151.639 103.435 151.54C104.43 151.412 105.236 151.316 105.854 151.252C106.479 151.181 106.933 151.064 107.217 150.901C107.508 150.737 107.654 150.453 107.654 150.048V149.963C107.654 148.912 107.366 148.095 106.791 147.513C106.223 146.93 105.36 146.639 104.202 146.639C103.002 146.639 102.061 146.902 101.379 147.428C100.697 147.953 100.218 148.514 99.941 149.111L97.5546 148.259C97.9807 147.264 98.5489 146.49 99.2591 145.936C99.9765 145.375 100.758 144.984 101.603 144.764C102.455 144.537 103.293 144.423 104.117 144.423C104.643 144.423 105.246 144.487 105.928 144.615C106.617 144.736 107.281 144.988 107.92 145.371C108.567 145.755 109.103 146.334 109.529 147.108C109.955 147.882 110.168 148.919 110.168 150.219V161H107.654V158.784H107.526C107.356 159.139 107.072 159.519 106.674 159.924C106.276 160.329 105.747 160.673 105.087 160.957C104.426 161.241 103.62 161.384 102.668 161.384ZM103.052 159.125C104.046 159.125 104.884 158.93 105.566 158.539C106.255 158.148 106.773 157.644 107.121 157.026C107.476 156.408 107.654 155.759 107.654 155.077V152.776C107.547 152.903 107.313 153.021 106.951 153.127C106.596 153.227 106.184 153.315 105.715 153.393C105.253 153.464 104.802 153.528 104.362 153.585C103.929 153.635 103.577 153.678 103.307 153.713C102.654 153.798 102.043 153.937 101.475 154.129C100.914 154.313 100.459 154.594 100.111 154.97C99.7705 155.339 99.6001 155.844 99.6001 156.483C99.6001 157.357 99.9232 158.017 100.57 158.464C101.223 158.905 102.05 159.125 103.052 159.125ZM126.348 148.301L124.09 148.94C123.948 148.564 123.738 148.198 123.461 147.843C123.191 147.481 122.822 147.183 122.353 146.948C121.884 146.714 121.284 146.597 120.553 146.597C119.551 146.597 118.717 146.827 118.049 147.289C117.389 147.744 117.058 148.322 117.058 149.026C117.058 149.651 117.286 150.144 117.74 150.506C118.195 150.869 118.905 151.17 119.871 151.412L122.3 152.009C123.763 152.364 124.853 152.907 125.57 153.638C126.288 154.363 126.646 155.297 126.646 156.44C126.646 157.378 126.377 158.216 125.837 158.955C125.304 159.693 124.558 160.276 123.6 160.702C122.641 161.128 121.526 161.341 120.254 161.341C118.585 161.341 117.204 160.979 116.11 160.254C115.016 159.53 114.324 158.472 114.033 157.08L116.419 156.483C116.646 157.364 117.076 158.024 117.708 158.464C118.347 158.905 119.182 159.125 120.212 159.125C121.384 159.125 122.314 158.876 123.003 158.379C123.699 157.875 124.047 157.271 124.047 156.568C124.047 156 123.848 155.524 123.45 155.141C123.053 154.75 122.442 154.459 121.618 154.267L118.891 153.628C117.392 153.273 116.291 152.722 115.588 151.977C114.892 151.224 114.544 150.283 114.544 149.153C114.544 148.23 114.803 147.413 115.322 146.703C115.847 145.993 116.561 145.435 117.463 145.031C118.372 144.626 119.402 144.423 120.553 144.423C122.172 144.423 123.443 144.778 124.367 145.489C125.297 146.199 125.957 147.136 126.348 148.301ZM137.547 144.636V146.767H129.067V144.636H137.547ZM131.539 140.716H134.053V156.312C134.053 157.023 134.156 157.555 134.362 157.911C134.575 158.259 134.845 158.493 135.172 158.614C135.506 158.727 135.857 158.784 136.226 158.784C136.503 158.784 136.731 158.77 136.908 158.741C137.086 158.706 137.228 158.678 137.334 158.656L137.846 160.915C137.675 160.979 137.437 161.043 137.132 161.107C136.827 161.178 136.44 161.213 135.971 161.213C135.261 161.213 134.565 161.06 133.883 160.755C133.208 160.45 132.647 159.984 132.199 159.359C131.759 158.734 131.539 157.946 131.539 156.994V140.716ZM146.145 161.384C145.108 161.384 144.167 161.188 143.322 160.798C142.476 160.4 141.805 159.828 141.308 159.082C140.811 158.33 140.562 157.42 140.562 156.355C140.562 155.418 140.747 154.658 141.116 154.075C141.486 153.486 141.979 153.024 142.597 152.69C143.215 152.357 143.897 152.108 144.643 151.945C145.396 151.774 146.152 151.639 146.912 151.54C147.906 151.412 148.712 151.316 149.33 151.252C149.955 151.181 150.41 151.064 150.694 150.901C150.985 150.737 151.131 150.453 151.131 150.048V149.963C151.131 148.912 150.843 148.095 150.268 147.513C149.699 146.93 148.837 146.639 147.679 146.639C146.479 146.639 145.538 146.902 144.856 147.428C144.174 147.953 143.695 148.514 143.418 149.111L141.031 148.259C141.457 147.264 142.025 146.49 142.736 145.936C143.453 145.375 144.234 144.984 145.079 144.764C145.932 144.537 146.77 144.423 147.594 144.423C148.119 144.423 148.723 144.487 149.405 144.615C150.094 144.736 150.758 144.988 151.397 145.371C152.043 145.755 152.579 146.334 153.006 147.108C153.432 147.882 153.645 148.919 153.645 150.219V161H151.131V158.784H151.003C150.832 159.139 150.548 159.519 150.15 159.924C149.753 160.329 149.224 160.673 148.563 160.957C147.903 161.241 147.097 161.384 146.145 161.384ZM146.528 159.125C147.523 159.125 148.361 158.93 149.043 158.539C149.731 158.148 150.25 157.644 150.598 157.026C150.953 156.408 151.131 155.759 151.131 155.077V152.776C151.024 152.903 150.79 153.021 150.427 153.127C150.072 153.227 149.66 153.315 149.192 153.393C148.73 153.464 148.279 153.528 147.839 153.585C147.405 153.635 147.054 153.678 146.784 153.713C146.131 153.798 145.52 153.937 144.952 154.129C144.391 154.313 143.936 154.594 143.588 154.97C143.247 155.339 143.077 155.844 143.077 156.483C143.077 157.357 143.4 158.017 144.046 158.464C144.699 158.905 145.527 159.125 146.528 159.125ZM164.839 167.477C163.624 167.477 162.58 167.321 161.707 167.009C160.833 166.703 160.105 166.298 159.523 165.794C158.948 165.297 158.489 164.764 158.149 164.196L160.151 162.79C160.379 163.088 160.666 163.429 161.014 163.812C161.362 164.203 161.838 164.54 162.442 164.825C163.053 165.116 163.852 165.261 164.839 165.261C166.16 165.261 167.25 164.942 168.109 164.303C168.969 163.663 169.399 162.662 169.399 161.298V157.974H169.185C169.001 158.273 168.738 158.642 168.397 159.082C168.063 159.516 167.58 159.903 166.948 160.244C166.323 160.577 165.478 160.744 164.413 160.744C163.092 160.744 161.906 160.432 160.854 159.807C159.81 159.182 158.983 158.273 158.372 157.08C157.769 155.886 157.467 154.437 157.467 152.733C157.467 151.057 157.761 149.597 158.351 148.354C158.94 147.104 159.761 146.138 160.812 145.457C161.863 144.768 163.078 144.423 164.455 144.423C165.521 144.423 166.366 144.601 166.991 144.956C167.623 145.304 168.106 145.702 168.44 146.149C168.781 146.589 169.043 146.952 169.228 147.236H169.484V144.636H171.913V161.469C171.913 162.875 171.593 164.018 170.954 164.899C170.322 165.787 169.47 166.437 168.397 166.849C167.332 167.268 166.146 167.477 164.839 167.477ZM164.754 158.486C165.762 158.486 166.614 158.255 167.31 157.793C168.006 157.332 168.536 156.668 168.898 155.801C169.26 154.935 169.441 153.898 169.441 152.69C169.441 151.511 169.264 150.471 168.908 149.569C168.553 148.667 168.028 147.96 167.332 147.449C166.636 146.937 165.776 146.682 164.754 146.682C163.688 146.682 162.801 146.952 162.09 147.491C161.387 148.031 160.858 148.756 160.503 149.665C160.155 150.574 159.981 151.582 159.981 152.69C159.981 153.827 160.158 154.832 160.514 155.705C160.876 156.572 161.408 157.254 162.112 157.751C162.822 158.241 163.703 158.486 164.754 158.486ZM183.376 161.341C181.799 161.341 180.439 160.993 179.296 160.297C178.159 159.594 177.282 158.614 176.664 157.357C176.053 156.092 175.748 154.622 175.748 152.946C175.748 151.27 176.053 149.793 176.664 148.514C177.282 147.229 178.141 146.227 179.242 145.51C180.35 144.786 181.643 144.423 183.12 144.423C183.972 144.423 184.814 144.565 185.645 144.849C186.476 145.134 187.232 145.595 187.914 146.234C188.596 146.866 189.139 147.705 189.544 148.749C189.949 149.793 190.151 151.078 190.151 152.605V153.67H177.538V151.497H187.595C187.595 150.574 187.41 149.75 187.041 149.026C186.678 148.301 186.16 147.729 185.485 147.31C184.818 146.891 184.029 146.682 183.12 146.682C182.119 146.682 181.252 146.93 180.521 147.428C179.796 147.918 179.239 148.557 178.848 149.345C178.457 150.134 178.262 150.979 178.262 151.881V153.33C178.262 154.565 178.475 155.613 178.901 156.472C179.335 157.325 179.935 157.974 180.702 158.422C181.469 158.862 182.36 159.082 183.376 159.082C184.036 159.082 184.633 158.99 185.166 158.805C185.705 158.614 186.171 158.33 186.561 157.953C186.952 157.57 187.254 157.094 187.467 156.526L189.896 157.207C189.64 158.031 189.21 158.756 188.607 159.381C188.003 159.999 187.257 160.482 186.369 160.83C185.482 161.17 184.484 161.341 183.376 161.341ZM209.061 161.341C207.584 161.341 206.288 160.989 205.173 160.286C204.065 159.583 203.198 158.599 202.573 157.335C201.955 156.071 201.646 154.594 201.646 152.903C201.646 151.199 201.955 149.711 202.573 148.44C203.198 147.168 204.065 146.181 205.173 145.478C206.288 144.775 207.584 144.423 209.061 144.423C210.538 144.423 211.831 144.775 212.939 145.478C214.054 146.181 214.921 147.168 215.538 148.44C216.163 149.711 216.476 151.199 216.476 152.903C216.476 154.594 216.163 156.071 215.538 157.335C214.921 158.599 214.054 159.583 212.939 160.286C211.831 160.989 210.538 161.341 209.061 161.341ZM209.061 159.082C210.183 159.082 211.107 158.795 211.831 158.219C212.555 157.644 213.092 156.888 213.44 155.95C213.788 155.013 213.962 153.997 213.962 152.903C213.962 151.81 213.788 150.79 213.44 149.846C213.092 148.901 212.555 148.138 211.831 147.555C211.107 146.973 210.183 146.682 209.061 146.682C207.939 146.682 207.016 146.973 206.291 147.555C205.567 148.138 205.031 148.901 204.683 149.846C204.335 150.79 204.161 151.81 204.161 152.903C204.161 153.997 204.335 155.013 204.683 155.95C205.031 156.888 205.567 157.644 206.291 158.219C207.016 158.795 207.939 159.082 209.061 159.082ZM227.601 144.636V146.767H218.78V144.636H227.601ZM221.422 161V142.378C221.422 141.44 221.642 140.659 222.082 140.034C222.523 139.409 223.094 138.94 223.797 138.628C224.501 138.315 225.243 138.159 226.024 138.159C226.642 138.159 227.146 138.209 227.537 138.308C227.927 138.408 228.219 138.5 228.41 138.585L227.686 140.759C227.558 140.716 227.381 140.663 227.153 140.599C226.933 140.535 226.642 140.503 226.28 140.503C225.449 140.503 224.849 140.712 224.479 141.131C224.117 141.55 223.936 142.165 223.936 142.974V161H221.422ZM36.9074 180.636V182.767H28.0864V180.636H36.9074ZM30.7284 197V178.378C30.7284 177.44 30.9486 176.659 31.3889 176.034C31.8293 175.409 32.401 174.94 33.1041 174.628C33.8073 174.315 34.5494 174.159 35.3307 174.159C35.9486 174.159 36.4529 174.209 36.8435 174.308C37.2341 174.408 37.5253 174.5 37.7171 174.585L36.9926 176.759C36.8648 176.716 36.6872 176.663 36.46 176.599C36.2398 176.535 35.9486 176.503 35.5864 176.503C34.7554 176.503 34.1553 176.712 33.786 177.131C33.4237 177.55 33.2426 178.165 33.2426 178.974V197H30.7284ZM46.618 197.341C45.0413 197.341 43.6812 196.993 42.5377 196.297C41.4014 195.594 40.5242 194.614 39.9063 193.357C39.2955 192.092 38.9901 190.622 38.9901 188.946C38.9901 187.27 39.2955 185.793 39.9063 184.514C40.5242 183.229 41.3836 182.227 42.4845 181.51C43.5924 180.786 44.885 180.423 46.3623 180.423C47.2146 180.423 48.0562 180.565 48.8872 180.849C49.7181 181.134 50.4745 181.595 51.1563 182.234C51.8382 182.866 52.3815 183.705 52.7863 184.749C53.1911 185.793 53.3936 187.078 53.3936 188.605V189.67H40.7799V187.497H50.8367C50.8367 186.574 50.6521 185.75 50.2828 185.026C49.9205 184.301 49.4021 183.729 48.7274 183.31C48.0597 182.891 47.2714 182.682 46.3623 182.682C45.3609 182.682 44.4944 182.93 43.7629 183.428C43.0384 183.918 42.4809 184.557 42.0903 185.345C41.6997 186.134 41.5044 186.979 41.5044 187.881V189.33C41.5044 190.565 41.7174 191.613 42.1436 192.472C42.5768 193.325 43.1769 193.974 43.944 194.422C44.711 194.862 45.6024 195.082 46.618 195.082C47.2785 195.082 47.8751 194.99 48.4078 194.805C48.9475 194.614 49.4127 194.33 49.8034 193.953C50.194 193.57 50.4958 193.094 50.7089 192.526L53.1379 193.207C52.8822 194.031 52.4525 194.756 51.8488 195.381C51.2451 195.999 50.4994 196.482 49.6116 196.83C48.7238 197.17 47.7259 197.341 46.618 197.341ZM57.2181 197V180.636H59.6471V183.108H59.8176C60.1159 182.298 60.6556 181.641 61.4369 181.137C62.2181 180.633 63.0988 180.381 64.0789 180.381C64.2636 180.381 64.4944 180.384 64.7714 180.391C65.0484 180.398 65.2579 180.409 65.3999 180.423V182.98C65.3147 182.959 65.1194 182.927 64.814 182.884C64.5157 182.835 64.1997 182.81 63.8659 182.81C63.0704 182.81 62.3602 182.977 61.7352 183.31C61.1173 183.637 60.6272 184.092 60.265 184.674C59.9099 185.249 59.7323 185.906 59.7323 186.645V197H57.2181ZM76.5221 180.636V182.767H68.042V180.636H76.5221ZM70.5136 176.716H73.0278V192.312C73.0278 193.023 73.1308 193.555 73.3367 193.911C73.5498 194.259 73.8197 194.493 74.1464 194.614C74.4802 194.727 74.8318 194.784 75.2011 194.784C75.4781 194.784 75.7053 194.77 75.8829 194.741C76.0605 194.706 76.2025 194.678 76.309 194.656L76.8204 196.915C76.6499 196.979 76.412 197.043 76.1066 197.107C75.8012 197.178 75.4142 197.213 74.9454 197.213C74.2352 197.213 73.5392 197.06 72.8573 196.755C72.1826 196.45 71.6215 195.984 71.1741 195.359C70.7338 194.734 70.5136 193.946 70.5136 192.994V176.716ZM80.3041 197V180.636H82.8183V197H80.3041ZM81.5825 177.909C81.0924 177.909 80.6698 177.742 80.3147 177.408C79.9667 177.075 79.7927 176.673 79.7927 176.205C79.7927 175.736 79.9667 175.335 80.3147 175.001C80.6698 174.667 81.0924 174.5 81.5825 174.5C82.0725 174.5 82.4916 174.667 82.8396 175.001C83.1947 175.335 83.3722 175.736 83.3722 176.205C83.3722 176.673 83.1947 177.075 82.8396 177.408C82.4916 177.742 82.0725 177.909 81.5825 177.909ZM89.9374 175.182V197H87.4232V175.182H89.9374ZM94.5423 197V180.636H97.0566V197H94.5423ZM95.8208 177.909C95.3307 177.909 94.9081 177.742 94.553 177.408C94.205 177.075 94.031 176.673 94.031 176.205C94.031 175.736 94.205 175.335 94.553 175.001C94.9081 174.667 95.3307 174.5 95.8208 174.5C96.3108 174.5 96.7298 174.667 97.0779 175.001C97.433 175.335 97.6105 175.736 97.6105 176.205C97.6105 176.673 97.433 177.075 97.0779 177.408C96.7298 177.742 96.3108 177.909 95.8208 177.909ZM101.193 197V195.082L110.483 183.151V182.98H101.491V180.636H113.721V182.639L104.687 194.486V194.656H114.019V197H101.193ZM124.284 197.341C122.707 197.341 121.347 196.993 120.204 196.297C119.067 195.594 118.19 194.614 117.572 193.357C116.962 192.092 116.656 190.622 116.656 188.946C116.656 187.27 116.962 185.793 117.572 184.514C118.19 183.229 119.05 182.227 120.15 181.51C121.258 180.786 122.551 180.423 124.028 180.423C124.881 180.423 125.722 180.565 126.553 180.849C127.384 181.134 128.141 181.595 128.822 182.234C129.504 182.866 130.047 183.705 130.452 184.749C130.857 185.793 131.06 187.078 131.06 188.605V189.67H118.446V187.497H128.503C128.503 186.574 128.318 185.75 127.949 185.026C127.587 184.301 127.068 183.729 126.393 183.31C125.726 182.891 124.937 182.682 124.028 182.682C123.027 182.682 122.16 182.93 121.429 183.428C120.704 183.918 120.147 184.557 119.756 185.345C119.366 186.134 119.17 186.979 119.17 187.881V189.33C119.17 190.565 119.383 191.613 119.81 192.472C120.243 193.325 120.843 193.974 121.61 194.422C122.377 194.862 123.268 195.082 124.284 195.082C124.945 195.082 125.541 194.99 126.074 194.805C126.614 194.614 127.079 194.33 127.469 193.953C127.86 193.57 128.162 193.094 128.375 192.526L130.804 193.207C130.548 194.031 130.119 194.756 129.515 195.381C128.911 195.999 128.165 196.482 127.278 196.83C126.39 197.17 125.392 197.341 124.284 197.341ZM134.884 197V180.636H137.313V183.108H137.484C137.782 182.298 138.322 181.641 139.103 181.137C139.884 180.633 140.765 180.381 141.745 180.381C141.93 180.381 142.16 180.384 142.437 180.391C142.714 180.398 142.924 180.409 143.066 180.423V182.98C142.981 182.959 142.785 182.927 142.48 182.884C142.182 182.835 141.866 182.81 141.532 182.81C140.736 182.81 140.026 182.977 139.401 183.31C138.783 183.637 138.293 184.092 137.931 184.674C137.576 185.249 137.398 185.906 137.398 186.645V197H134.884ZM158.191 197L153.205 180.636H155.847L159.384 193.165H159.555L163.049 180.636H165.734L169.185 193.122H169.356L172.893 180.636H175.535L170.549 197H168.078L164.498 184.429H164.242L160.663 197H158.191ZM183.674 197.384C182.637 197.384 181.696 197.188 180.851 196.798C180.006 196.4 179.335 195.828 178.837 195.082C178.34 194.33 178.092 193.42 178.092 192.355C178.092 191.418 178.276 190.658 178.646 190.075C179.015 189.486 179.509 189.024 180.127 188.69C180.744 188.357 181.426 188.108 182.172 187.945C182.925 187.774 183.681 187.639 184.441 187.54C185.435 187.412 186.242 187.316 186.859 187.252C187.484 187.181 187.939 187.064 188.223 186.901C188.514 186.737 188.66 186.453 188.66 186.048V185.963C188.66 184.912 188.372 184.095 187.797 183.513C187.229 182.93 186.366 182.639 185.208 182.639C184.008 182.639 183.067 182.902 182.385 183.428C181.703 183.953 181.224 184.514 180.947 185.111L178.56 184.259C178.987 183.264 179.555 182.49 180.265 181.936C180.982 181.375 181.764 180.984 182.609 180.764C183.461 180.537 184.299 180.423 185.123 180.423C185.649 180.423 186.252 180.487 186.934 180.615C187.623 180.736 188.287 180.988 188.926 181.371C189.573 181.755 190.109 182.334 190.535 183.108C190.961 183.882 191.174 184.919 191.174 186.219V197H188.66V194.784H188.532C188.362 195.139 188.078 195.519 187.68 195.924C187.282 196.329 186.753 196.673 186.092 196.957C185.432 197.241 184.626 197.384 183.674 197.384ZM184.058 195.125C185.052 195.125 185.89 194.93 186.572 194.539C187.261 194.148 187.779 193.644 188.127 193.026C188.482 192.408 188.66 191.759 188.66 191.077V188.776C188.553 188.903 188.319 189.021 187.957 189.127C187.602 189.227 187.19 189.315 186.721 189.393C186.259 189.464 185.808 189.528 185.368 189.585C184.935 189.635 184.583 189.678 184.313 189.713C183.66 189.798 183.049 189.937 182.481 190.129C181.92 190.313 181.465 190.594 181.117 190.97C180.776 191.339 180.606 191.844 180.606 192.483C180.606 193.357 180.929 194.017 181.575 194.464C182.229 194.905 183.056 195.125 184.058 195.125ZM207.354 184.301L205.095 184.94C204.953 184.564 204.744 184.198 204.467 183.843C204.197 183.481 203.828 183.183 203.359 182.948C202.89 182.714 202.29 182.597 201.559 182.597C200.557 182.597 199.723 182.827 199.055 183.289C198.394 183.744 198.064 184.322 198.064 185.026C198.064 185.651 198.291 186.144 198.746 186.506C199.201 186.869 199.911 187.17 200.877 187.412L203.306 188.009C204.769 188.364 205.859 188.907 206.576 189.638C207.294 190.363 207.652 191.297 207.652 192.44C207.652 193.378 207.382 194.216 206.843 194.955C206.31 195.693 205.564 196.276 204.605 196.702C203.647 197.128 202.532 197.341 201.26 197.341C199.591 197.341 198.21 196.979 197.116 196.254C196.022 195.53 195.33 194.472 195.039 193.08L197.425 192.483C197.652 193.364 198.082 194.024 198.714 194.464C199.353 194.905 200.188 195.125 201.218 195.125C202.389 195.125 203.32 194.876 204.009 194.379C204.705 193.875 205.053 193.271 205.053 192.568C205.053 192 204.854 191.524 204.456 191.141C204.059 190.75 203.448 190.459 202.624 190.267L199.897 189.628C198.398 189.273 197.297 188.722 196.594 187.977C195.898 187.224 195.55 186.283 195.55 185.153C195.55 184.23 195.809 183.413 196.328 182.703C196.853 181.993 197.567 181.435 198.469 181.031C199.378 180.626 200.408 180.423 201.559 180.423C203.178 180.423 204.449 180.778 205.372 181.489C206.303 182.199 206.963 183.136 207.354 184.301ZM218.553 180.636V182.767H210.073V180.636H218.553ZM212.545 176.716H215.059V192.312C215.059 193.023 215.162 193.555 215.368 193.911C215.581 194.259 215.851 194.493 216.178 194.614C216.511 194.727 216.863 194.784 217.232 194.784C217.509 194.784 217.737 194.77 217.914 194.741C218.092 194.706 218.234 194.678 218.34 194.656L218.852 196.915C218.681 196.979 218.443 197.043 218.138 197.107C217.832 197.178 217.445 197.213 216.977 197.213C216.266 197.213 215.57 197.06 214.889 196.755C214.214 196.45 213.653 195.984 213.205 195.359C212.765 194.734 212.545 193.946 212.545 192.994V176.716ZM227.151 197.384C226.114 197.384 225.173 197.188 224.328 196.798C223.482 196.4 222.811 195.828 222.314 195.082C221.817 194.33 221.568 193.42 221.568 192.355C221.568 191.418 221.753 190.658 222.122 190.075C222.492 189.486 222.985 189.024 223.603 188.69C224.221 188.357 224.903 188.108 225.649 187.945C226.401 187.774 227.158 187.639 227.918 187.54C228.912 187.412 229.718 187.316 230.336 187.252C230.961 187.181 231.416 187.064 231.7 186.901C231.991 186.737 232.136 186.453 232.136 186.048V185.963C232.136 184.912 231.849 184.095 231.274 183.513C230.705 182.93 229.842 182.639 228.685 182.639C227.484 182.639 226.543 182.902 225.862 183.428C225.18 183.953 224.7 184.514 224.423 185.111L222.037 184.259C222.463 183.264 223.031 182.49 223.742 181.936C224.459 181.375 225.24 180.984 226.085 180.764C226.938 180.537 227.776 180.423 228.6 180.423C229.125 180.423 229.729 180.487 230.411 180.615C231.1 180.736 231.764 180.988 232.403 181.371C233.049 181.755 233.585 182.334 234.011 183.108C234.438 183.882 234.651 184.919 234.651 186.219V197H232.136V194.784H232.009C231.838 195.139 231.554 195.519 231.156 195.924C230.759 196.329 230.229 196.673 229.569 196.957C228.908 197.241 228.102 197.384 227.151 197.384ZM227.534 195.125C228.528 195.125 229.367 194.93 230.048 194.539C230.737 194.148 231.256 193.644 231.604 193.026C231.959 192.408 232.136 191.759 232.136 191.077V188.776C232.03 188.903 231.796 189.021 231.433 189.127C231.078 189.227 230.666 189.315 230.198 189.393C229.736 189.464 229.285 189.528 228.845 189.585C228.411 189.635 228.06 189.678 227.79 189.713C227.136 189.798 226.526 189.937 225.957 190.129C225.396 190.313 224.942 190.594 224.594 190.97C224.253 191.339 224.082 191.844 224.082 192.483C224.082 193.357 224.406 194.017 225.052 194.464C225.705 194.905 226.533 195.125 227.534 195.125ZM245.845 203.477C244.63 203.477 243.586 203.321 242.713 203.009C241.839 202.703 241.111 202.298 240.529 201.794C239.953 201.297 239.495 200.764 239.154 200.196L241.157 198.79C241.384 199.088 241.672 199.429 242.02 199.812C242.368 200.203 242.844 200.54 243.448 200.825C244.059 201.116 244.858 201.261 245.845 201.261C247.166 201.261 248.256 200.942 249.115 200.303C249.975 199.663 250.404 198.662 250.404 197.298V193.974H250.191C250.007 194.273 249.744 194.642 249.403 195.082C249.069 195.516 248.586 195.903 247.954 196.244C247.329 196.577 246.484 196.744 245.419 196.744C244.098 196.744 242.911 196.432 241.86 195.807C240.816 195.182 239.989 194.273 239.378 193.08C238.774 191.886 238.473 190.437 238.473 188.733C238.473 187.057 238.767 185.597 239.357 184.354C239.946 183.104 240.767 182.138 241.818 181.457C242.869 180.768 244.083 180.423 245.461 180.423C246.527 180.423 247.372 180.601 247.997 180.956C248.629 181.304 249.112 181.702 249.446 182.149C249.786 182.589 250.049 182.952 250.234 183.236H250.49V180.636H252.919V197.469C252.919 198.875 252.599 200.018 251.96 200.899C251.328 201.787 250.475 202.437 249.403 202.849C248.338 203.268 247.152 203.477 245.845 203.477ZM245.759 194.486C246.768 194.486 247.62 194.255 248.316 193.793C249.012 193.332 249.541 192.668 249.904 191.801C250.266 190.935 250.447 189.898 250.447 188.69C250.447 187.511 250.269 186.471 249.914 185.569C249.559 184.667 249.034 183.96 248.338 183.449C247.642 182.937 246.782 182.682 245.759 182.682C244.694 182.682 243.806 182.952 243.096 183.491C242.393 184.031 241.864 184.756 241.509 185.665C241.161 186.574 240.987 187.582 240.987 188.69C240.987 189.827 241.164 190.832 241.519 191.705C241.882 192.572 242.414 193.254 243.117 193.751C243.828 194.241 244.708 194.486 245.759 194.486ZM264.382 197.341C262.805 197.341 261.445 196.993 260.301 196.297C259.165 195.594 258.288 194.614 257.67 193.357C257.059 192.092 256.754 190.622 256.754 188.946C256.754 187.27 257.059 185.793 257.67 184.514C258.288 183.229 259.147 182.227 260.248 181.51C261.356 180.786 262.649 180.423 264.126 180.423C264.978 180.423 265.82 180.565 266.651 180.849C267.482 181.134 268.238 181.595 268.92 182.234C269.602 182.866 270.145 183.705 270.55 184.749C270.955 185.793 271.157 187.078 271.157 188.605V189.67H258.544V187.497H268.6C268.6 186.574 268.416 185.75 268.046 185.026C267.684 184.301 267.166 183.729 266.491 183.31C265.823 182.891 265.035 182.682 264.126 182.682C263.125 182.682 262.258 182.93 261.527 183.428C260.802 183.918 260.245 184.557 259.854 185.345C259.463 186.134 259.268 186.979 259.268 187.881V189.33C259.268 190.565 259.481 191.613 259.907 192.472C260.34 193.325 260.941 193.974 261.708 194.422C262.475 194.862 263.366 195.082 264.382 195.082C265.042 195.082 265.639 194.99 266.171 194.805C266.711 194.614 267.176 194.33 267.567 193.953C267.958 193.57 268.259 193.094 268.473 192.526L270.902 193.207C270.646 194.031 270.216 194.756 269.612 195.381C269.009 195.999 268.263 196.482 267.375 196.83C266.487 197.17 265.49 197.341 264.382 197.341Z" fill="white"/>
</svg>
