<svg width="300" height="300" viewBox="0 0 300 300" fill="none" xmlns="http://www.w3.org/2000/svg">
<circle cx="150" cy="150" r="150" fill="#EFBB00"/>
<path d="M56.8 110C56.5656 109.283 56.2567 108.64 55.8731 108.072C55.4967 107.496 55.0457 107.006 54.5202 106.602C54.0017 106.197 53.4122 105.888 52.7517 105.675C52.0912 105.462 51.3667 105.355 50.5784 105.355C49.2858 105.355 48.1104 105.689 47.0521 106.357C45.9939 107.024 45.1523 108.008 44.5273 109.308C43.9023 110.607 43.5898 112.202 43.5898 114.091C43.5898 115.98 43.9058 117.575 44.5379 118.874C45.17 120.174 46.0258 121.158 47.1054 121.825C48.1849 122.493 49.3994 122.827 50.7488 122.827C51.9988 122.827 53.0997 122.56 54.0514 122.028C55.0102 121.488 55.7559 120.728 56.2886 119.748C56.8284 118.761 57.0983 117.599 57.0983 116.264L57.9079 116.435H51.3454V114.091H59.6551V116.435C59.6551 118.232 59.2716 119.794 58.5045 121.122C57.7446 122.45 56.6934 123.48 55.3511 124.212C54.0159 124.936 52.4818 125.298 50.7488 125.298C48.817 125.298 47.1196 124.844 45.6565 123.935C44.2006 123.026 43.0642 121.733 42.2474 120.057C41.4378 118.381 41.0329 116.392 41.0329 114.091C41.0329 112.365 41.2638 110.813 41.7254 109.435C42.1942 108.05 42.8547 106.871 43.7069 105.898C44.5592 104.925 45.5677 104.18 46.7325 103.661C47.8973 103.143 49.1792 102.884 50.5784 102.884C51.729 102.884 52.8014 103.058 53.7957 103.406C54.7971 103.746 55.6885 104.233 56.4697 104.865C57.2581 105.49 57.915 106.239 58.4406 107.113C58.9662 107.979 59.3284 108.942 59.5273 110H56.8ZM70.7 125.341C69.1233 125.341 67.7632 124.993 66.6198 124.297C65.4834 123.594 64.6063 122.614 63.9884 121.357C63.3776 120.092 63.0722 118.622 63.0722 116.946C63.0722 115.27 63.3776 113.793 63.9884 112.514C64.6063 111.229 65.4656 110.227 66.5665 109.51C67.6744 108.786 68.9671 108.423 70.4443 108.423C71.2966 108.423 72.1382 108.565 72.9692 108.849C73.8002 109.134 74.5566 109.595 75.2384 110.234C75.9202 110.866 76.4635 111.705 76.8683 112.749C77.2732 113.793 77.4756 115.078 77.4756 116.605V117.67H64.8619V115.497H74.9188C74.9188 114.574 74.7341 113.75 74.3648 113.026C74.0026 112.301 73.4841 111.729 72.8094 111.31C72.1418 110.891 71.3534 110.682 70.4443 110.682C69.4429 110.682 68.5764 110.93 67.8449 111.428C67.1205 111.918 66.5629 112.557 66.1723 113.345C65.7817 114.134 65.5864 114.979 65.5864 115.881V117.33C65.5864 118.565 65.7994 119.613 66.2256 120.472C66.6588 121.325 67.259 121.974 68.026 122.422C68.7931 122.862 69.6844 123.082 70.7 123.082C71.3605 123.082 71.9571 122.99 72.4898 122.805C73.0296 122.614 73.4948 122.33 73.8854 121.953C74.276 121.57 74.5779 121.094 74.7909 120.526L77.2199 121.207C76.9642 122.031 76.5345 122.756 75.9308 123.381C75.3271 123.999 74.5814 124.482 73.6936 124.83C72.8058 125.17 71.808 125.341 70.7 125.341ZM88.4166 108.636V110.767H79.9365V108.636H88.4166ZM82.4081 104.716H84.9223V120.312C84.9223 121.023 85.0253 121.555 85.2313 121.911C85.4443 122.259 85.7142 122.493 86.0409 122.614C86.3747 122.727 86.7263 122.784 87.0956 122.784C87.3726 122.784 87.5999 122.77 87.7774 122.741C87.955 122.706 88.097 122.678 88.2036 122.656L88.7149 124.915C88.5445 124.979 88.3066 125.043 88.0012 125.107C87.6958 125.178 87.3087 125.213 86.8399 125.213C86.1297 125.213 85.4337 125.06 84.7519 124.755C84.0771 124.45 83.5161 123.984 83.0686 123.359C82.6283 122.734 82.4081 121.946 82.4081 120.994V104.716ZM100.593 125V123.082L107.795 115.199C108.64 114.276 109.336 113.473 109.883 112.791C110.43 112.102 110.835 111.456 111.098 110.852C111.368 110.241 111.503 109.602 111.503 108.935C111.503 108.168 111.318 107.504 110.949 106.942C110.586 106.381 110.089 105.948 109.457 105.643C108.825 105.337 108.115 105.185 107.326 105.185C106.488 105.185 105.757 105.359 105.132 105.707C104.514 106.048 104.035 106.527 103.694 107.145C103.36 107.763 103.193 108.487 103.193 109.318H100.679C100.679 108.04 100.973 106.918 101.563 105.952C102.152 104.986 102.955 104.233 103.971 103.693C104.993 103.153 106.14 102.884 107.412 102.884C108.69 102.884 109.823 103.153 110.81 103.693C111.797 104.233 112.571 104.961 113.133 105.877C113.694 106.793 113.974 107.812 113.974 108.935C113.974 109.737 113.829 110.522 113.537 111.289C113.253 112.049 112.756 112.898 112.046 113.835C111.343 114.766 110.366 115.902 109.116 117.244L104.216 122.486V122.656H114.358V125H100.593ZM117.777 120.526V118.352L127.366 103.182H128.942V106.548H127.877L120.633 118.011V118.182H133.544V120.526H117.777ZM128.047 125V119.865V118.853V103.182H130.562V125H128.047ZM148.531 115.156V125H146.017V103.182H148.531V111.193H148.744C149.128 110.348 149.703 109.677 150.47 109.18C151.244 108.675 152.274 108.423 153.56 108.423C154.675 108.423 155.651 108.647 156.489 109.094C157.327 109.535 157.977 110.213 158.439 111.129C158.908 112.038 159.142 113.196 159.142 114.602V125H156.628V114.773C156.628 113.473 156.29 112.468 155.616 111.758C154.948 111.04 154.021 110.682 152.835 110.682C152.011 110.682 151.273 110.856 150.619 111.204C149.973 111.552 149.462 112.06 149.085 112.727C148.716 113.395 148.531 114.205 148.531 115.156ZM170.389 125.341C168.912 125.341 167.616 124.989 166.501 124.286C165.393 123.583 164.526 122.599 163.901 121.335C163.283 120.071 162.975 118.594 162.975 116.903C162.975 115.199 163.283 113.711 163.901 112.44C164.526 111.168 165.393 110.181 166.501 109.478C167.616 108.775 168.912 108.423 170.389 108.423C171.867 108.423 173.159 108.775 174.267 109.478C175.382 110.181 176.249 111.168 176.867 112.44C177.492 113.711 177.804 115.199 177.804 116.903C177.804 118.594 177.492 120.071 176.867 121.335C176.249 122.599 175.382 123.583 174.267 124.286C173.159 124.989 171.867 125.341 170.389 125.341ZM170.389 123.082C171.511 123.082 172.435 122.795 173.159 122.219C173.884 121.644 174.42 120.888 174.768 119.95C175.116 119.013 175.29 117.997 175.29 116.903C175.29 115.81 175.116 114.79 174.768 113.846C174.42 112.901 173.884 112.138 173.159 111.555C172.435 110.973 171.511 110.682 170.389 110.682C169.267 110.682 168.344 110.973 167.619 111.555C166.895 112.138 166.359 112.901 166.011 113.846C165.663 114.79 165.489 115.81 165.489 116.903C165.489 117.997 165.663 119.013 166.011 119.95C166.359 120.888 166.895 121.644 167.619 122.219C168.344 122.795 169.267 123.082 170.389 123.082ZM191.954 118.31V108.636H194.469V125H191.954V122.23H191.784C191.4 123.061 190.804 123.768 189.994 124.35C189.185 124.925 188.162 125.213 186.926 125.213C185.903 125.213 184.994 124.989 184.199 124.542C183.403 124.087 182.778 123.406 182.324 122.496C181.869 121.58 181.642 120.426 181.642 119.034V108.636H184.156V118.864C184.156 120.057 184.49 121.009 185.158 121.719C185.832 122.429 186.692 122.784 187.736 122.784C188.361 122.784 188.996 122.624 189.643 122.305C190.296 121.985 190.843 121.495 191.283 120.835C191.731 120.174 191.954 119.332 191.954 118.31ZM199.074 125V108.636H201.503V111.108H201.673C201.971 110.298 202.511 109.641 203.292 109.137C204.074 108.633 204.954 108.381 205.934 108.381C206.119 108.381 206.35 108.384 206.627 108.391C206.904 108.398 207.113 108.409 207.255 108.423V110.98C207.17 110.959 206.975 110.927 206.669 110.884C206.371 110.835 206.055 110.81 205.721 110.81C204.926 110.81 204.216 110.977 203.591 111.31C202.973 111.637 202.483 112.092 202.12 112.674C201.765 113.249 201.588 113.906 201.588 114.645V125H199.074ZM221.827 112.301L219.568 112.94C219.426 112.564 219.217 112.198 218.94 111.843C218.67 111.481 218.3 111.183 217.832 110.948C217.363 110.714 216.763 110.597 216.031 110.597C215.03 110.597 214.195 110.827 213.528 111.289C212.867 111.744 212.537 112.322 212.537 113.026C212.537 113.651 212.764 114.144 213.219 114.506C213.673 114.869 214.383 115.17 215.349 115.412L217.778 116.009C219.241 116.364 220.332 116.907 221.049 117.638C221.766 118.363 222.125 119.297 222.125 120.44C222.125 121.378 221.855 122.216 221.315 122.955C220.783 123.693 220.037 124.276 219.078 124.702C218.119 125.128 217.004 125.341 215.733 125.341C214.064 125.341 212.682 124.979 211.589 124.254C210.495 123.53 209.802 122.472 209.511 121.08L211.898 120.483C212.125 121.364 212.555 122.024 213.187 122.464C213.826 122.905 214.66 123.125 215.69 123.125C216.862 123.125 217.793 122.876 218.481 122.379C219.177 121.875 219.525 121.271 219.525 120.568C219.525 120 219.327 119.524 218.929 119.141C218.531 118.75 217.92 118.459 217.097 118.267L214.369 117.628C212.871 117.273 211.77 116.722 211.067 115.977C210.371 115.224 210.023 114.283 210.023 113.153C210.023 112.23 210.282 111.413 210.8 110.703C211.326 109.993 212.04 109.435 212.942 109.031C213.851 108.626 214.881 108.423 216.031 108.423C217.65 108.423 218.922 108.778 219.845 109.489C220.775 110.199 221.436 111.136 221.827 112.301ZM240.995 125.341C239.517 125.341 238.221 124.989 237.106 124.286C235.998 123.583 235.132 122.599 234.507 121.335C233.889 120.071 233.58 118.594 233.58 116.903C233.58 115.199 233.889 113.711 234.507 112.44C235.132 111.168 235.998 110.181 237.106 109.478C238.221 108.775 239.517 108.423 240.995 108.423C242.472 108.423 243.765 108.775 244.873 109.478C245.988 110.181 246.854 111.168 247.472 112.44C248.097 113.711 248.41 115.199 248.41 116.903C248.41 118.594 248.097 120.071 247.472 121.335C246.854 122.599 245.988 123.583 244.873 124.286C243.765 124.989 242.472 125.341 240.995 125.341ZM240.995 123.082C242.117 123.082 243.04 122.795 243.765 122.219C244.489 121.644 245.025 120.888 245.373 119.95C245.721 119.013 245.895 117.997 245.895 116.903C245.895 115.81 245.721 114.79 245.373 113.846C245.025 112.901 244.489 112.138 243.765 111.555C243.04 110.973 242.117 110.682 240.995 110.682C239.873 110.682 238.949 110.973 238.225 111.555C237.5 112.138 236.964 112.901 236.616 113.846C236.268 114.79 236.094 115.81 236.094 116.903C236.094 117.997 236.268 119.013 236.616 119.95C236.964 120.888 237.5 121.644 238.225 122.219C238.949 122.795 239.873 123.082 240.995 123.082ZM259.534 108.636V110.767H250.713V108.636H259.534ZM253.355 125V106.378C253.355 105.44 253.576 104.659 254.016 104.034C254.456 103.409 255.028 102.94 255.731 102.628C256.434 102.315 257.176 102.159 257.958 102.159C258.576 102.159 259.08 102.209 259.47 102.308C259.861 102.408 260.152 102.5 260.344 102.585L259.62 104.759C259.492 104.716 259.314 104.663 259.087 104.599C258.867 104.535 258.576 104.503 258.213 104.503C257.382 104.503 256.782 104.712 256.413 105.131C256.051 105.55 255.87 106.165 255.87 106.974V125H253.355ZM77.1999 161L72.2141 144.636H74.8562L78.3931 157.165H78.5636L82.0579 144.636H84.7425L88.1942 157.122H88.3647L91.9016 144.636H94.5437L89.5579 161H87.0863L83.5067 148.429H83.2511L79.6715 161H77.1999ZM103.959 161.341C102.481 161.341 101.185 160.989 100.07 160.286C98.9622 159.583 98.0957 158.599 97.4707 157.335C96.8528 156.071 96.5439 154.594 96.5439 152.903C96.5439 151.199 96.8528 149.711 97.4707 148.44C98.0957 147.168 98.9622 146.181 100.07 145.478C101.185 144.775 102.481 144.423 103.959 144.423C105.436 144.423 106.729 144.775 107.836 145.478C108.952 146.181 109.818 147.168 110.436 148.44C111.061 149.711 111.373 151.199 111.373 152.903C111.373 154.594 111.061 156.071 110.436 157.335C109.818 158.599 108.952 159.583 107.836 160.286C106.729 160.989 105.436 161.341 103.959 161.341ZM103.959 159.082C105.081 159.082 106.004 158.795 106.729 158.219C107.453 157.644 107.989 156.888 108.337 155.95C108.685 155.013 108.859 153.997 108.859 152.903C108.859 151.81 108.685 150.79 108.337 149.846C107.989 148.901 107.453 148.138 106.729 147.555C106.004 146.973 105.081 146.682 103.959 146.682C102.836 146.682 101.913 146.973 101.189 147.555C100.464 148.138 99.9281 148.901 99.5801 149.846C99.2321 150.79 99.0581 151.81 99.0581 152.903C99.0581 153.997 99.2321 155.013 99.5801 155.95C99.9281 156.888 100.464 157.644 101.189 158.219C101.913 158.795 102.836 159.082 103.959 159.082ZM115.211 161V144.636H117.64V147.108H117.811C118.109 146.298 118.649 145.641 119.43 145.137C120.211 144.633 121.092 144.381 122.072 144.381C122.257 144.381 122.488 144.384 122.765 144.391C123.042 144.398 123.251 144.409 123.393 144.423V146.98C123.308 146.959 123.113 146.927 122.807 146.884C122.509 146.835 122.193 146.81 121.859 146.81C121.064 146.81 120.353 146.977 119.728 147.31C119.11 147.637 118.62 148.092 118.258 148.674C117.903 149.249 117.725 149.906 117.725 150.645V161H115.211ZM128.717 155.034L128.675 151.923H129.186L136.345 144.636H139.456L131.828 152.349H131.615L128.717 155.034ZM126.373 161V139.182H128.888V161H126.373ZM136.771 161L130.379 152.903L132.169 151.156L139.967 161H136.771ZM157.308 161.341C155.945 161.341 154.741 160.996 153.697 160.308C152.653 159.612 151.836 158.631 151.246 157.367C150.657 156.096 150.362 154.594 150.362 152.861C150.362 151.142 150.657 149.651 151.246 148.386C151.836 147.122 152.656 146.146 153.707 145.457C154.759 144.768 155.973 144.423 157.351 144.423C158.416 144.423 159.258 144.601 159.876 144.956C160.501 145.304 160.977 145.702 161.303 146.149C161.637 146.589 161.896 146.952 162.081 147.236H162.294V139.182H164.808V161H162.379V158.486H162.081C161.896 158.784 161.634 159.161 161.293 159.615C160.952 160.062 160.465 160.464 159.833 160.819C159.201 161.167 158.359 161.341 157.308 161.341ZM157.649 159.082C158.658 159.082 159.51 158.82 160.206 158.294C160.902 157.761 161.431 157.026 161.793 156.089C162.156 155.144 162.337 154.054 162.337 152.818C162.337 151.597 162.159 150.528 161.804 149.612C161.449 148.688 160.923 147.971 160.227 147.46C159.531 146.941 158.672 146.682 157.649 146.682C156.584 146.682 155.696 146.955 154.986 147.502C154.283 148.042 153.754 148.777 153.398 149.707C153.05 150.631 152.876 151.668 152.876 152.818C152.876 153.983 153.054 155.041 153.409 155.993C153.771 156.937 154.304 157.69 155.007 158.251C155.717 158.805 156.598 159.082 157.649 159.082ZM176.41 161.341C174.933 161.341 173.636 160.989 172.521 160.286C171.413 159.583 170.547 158.599 169.922 157.335C169.304 156.071 168.995 154.594 168.995 152.903C168.995 151.199 169.304 149.711 169.922 148.44C170.547 147.168 171.413 146.181 172.521 145.478C173.636 144.775 174.933 144.423 176.41 144.423C177.887 144.423 179.18 144.775 180.288 145.478C181.403 146.181 182.269 147.168 182.887 148.44C183.512 149.711 183.825 151.199 183.825 152.903C183.825 154.594 183.512 156.071 182.887 157.335C182.269 158.599 181.403 159.583 180.288 160.286C179.18 160.989 177.887 161.341 176.41 161.341ZM176.41 159.082C177.532 159.082 178.455 158.795 179.18 158.219C179.904 157.644 180.44 156.888 180.788 155.95C181.136 155.013 181.31 153.997 181.31 152.903C181.31 151.81 181.136 150.79 180.788 149.846C180.44 148.901 179.904 148.138 179.18 147.555C178.455 146.973 177.532 146.682 176.41 146.682C175.288 146.682 174.364 146.973 173.64 147.555C172.915 148.138 172.379 148.901 172.031 149.846C171.683 150.79 171.509 151.81 171.509 152.903C171.509 153.997 171.683 155.013 172.031 155.95C172.379 156.888 172.915 157.644 173.64 158.219C174.364 158.795 175.288 159.082 176.41 159.082ZM190.177 151.156V161H187.662V144.636H190.091V147.193H190.305C190.688 146.362 191.27 145.695 192.052 145.19C192.833 144.679 193.841 144.423 195.077 144.423C196.185 144.423 197.155 144.651 197.986 145.105C198.817 145.553 199.463 146.234 199.925 147.151C200.386 148.06 200.617 149.21 200.617 150.602V161H198.103V150.773C198.103 149.487 197.769 148.486 197.101 147.768C196.434 147.044 195.518 146.682 194.353 146.682C193.55 146.682 192.833 146.856 192.201 147.204C191.576 147.552 191.082 148.06 190.72 148.727C190.358 149.395 190.177 150.205 190.177 151.156ZM212.072 161.341C210.495 161.341 209.135 160.993 207.992 160.297C206.855 159.594 205.978 158.614 205.36 157.357C204.75 156.092 204.444 154.622 204.444 152.946C204.444 151.27 204.75 149.793 205.36 148.514C205.978 147.229 206.838 146.227 207.939 145.51C209.047 144.786 210.339 144.423 211.816 144.423C212.669 144.423 213.51 144.565 214.341 144.849C215.172 145.134 215.929 145.595 216.61 146.234C217.292 146.866 217.836 147.705 218.24 148.749C218.645 149.793 218.848 151.078 218.848 152.605V153.67H206.234V151.497H216.291C216.291 150.574 216.106 149.75 215.737 149.026C215.375 148.301 214.856 147.729 214.181 147.31C213.514 146.891 212.725 146.682 211.816 146.682C210.815 146.682 209.949 146.93 209.217 147.428C208.493 147.918 207.935 148.557 207.544 149.345C207.154 150.134 206.958 150.979 206.958 151.881V153.33C206.958 154.565 207.172 155.613 207.598 156.472C208.031 157.325 208.631 157.974 209.398 158.422C210.165 158.862 211.056 159.082 212.072 159.082C212.733 159.082 213.329 158.99 213.862 158.805C214.402 158.614 214.867 158.33 215.257 157.953C215.648 157.57 215.95 157.094 216.163 156.526L218.592 157.207C218.336 158.031 217.907 158.756 217.303 159.381C216.699 159.999 215.953 160.482 215.066 160.83C214.178 161.17 213.18 161.341 212.072 161.341ZM27.2621 197V180.636H29.7763V197H27.2621ZM28.5405 177.909C28.0504 177.909 27.6278 177.742 27.2727 177.408C26.9247 177.075 26.7507 176.673 26.7507 176.205C26.7507 175.736 26.9247 175.335 27.2727 175.001C27.6278 174.667 28.0504 174.5 28.5405 174.5C29.0305 174.5 29.4496 174.667 29.7976 175.001C30.1527 175.335 30.3303 175.736 30.3303 176.205C30.3303 176.673 30.1527 177.075 29.7976 177.408C29.4496 177.742 29.0305 177.909 28.5405 177.909ZM36.8954 187.156V197H34.3812V180.636H36.8102V183.193H37.0233C37.4068 182.362 37.9892 181.695 38.7704 181.19C39.5517 180.679 40.5602 180.423 41.796 180.423C42.9039 180.423 43.8734 180.651 44.7044 181.105C45.5353 181.553 46.1816 182.234 46.6433 183.151C47.1049 184.06 47.3358 185.21 47.3358 186.602V197H44.8216V186.773C44.8216 185.487 44.4877 184.486 43.8201 183.768C43.1525 183.044 42.2363 182.682 41.0716 182.682C40.269 182.682 39.5517 182.856 38.9196 183.204C38.2946 183.552 37.801 184.06 37.4387 184.727C37.0765 185.395 36.8954 186.205 36.8954 187.156ZM60.3675 180.636H62.8817V198.193C62.8817 199.202 62.7077 200.075 62.3597 200.814C62.0188 201.553 61.5004 202.124 60.8043 202.529C60.1154 202.934 59.2454 203.136 58.1942 203.136C58.109 203.136 58.0238 203.136 57.9386 203.136C57.8533 203.136 57.7681 203.136 57.6829 203.136V200.793C57.7681 200.793 57.8462 200.793 57.9173 200.793C57.9883 200.793 58.0664 200.793 58.1516 200.793C58.9187 200.793 59.4798 200.565 59.8349 200.111C60.19 199.663 60.3675 199.024 60.3675 198.193V180.636ZM61.6033 177.909C61.1133 177.909 60.6907 177.742 60.3356 177.408C59.9876 177.075 59.8136 176.673 59.8136 176.205C59.8136 175.736 59.9876 175.335 60.3356 175.001C60.6907 174.667 61.1133 174.5 61.6033 174.5C62.0934 174.5 62.5124 174.667 62.8604 175.001C63.2156 175.335 63.3931 175.736 63.3931 176.205C63.3931 176.673 63.2156 177.075 62.8604 177.408C62.5124 177.742 62.0934 177.909 61.6033 177.909ZM77.7992 190.31V180.636H80.3134V197H77.7992V194.23H77.6287C77.2452 195.061 76.6486 195.768 75.839 196.35C75.0293 196.925 74.0066 197.213 72.7708 197.213C71.748 197.213 70.839 196.989 70.0435 196.542C69.248 196.087 68.623 195.406 68.1685 194.496C67.714 193.58 67.4867 192.426 67.4867 191.034V180.636H70.0009V190.864C70.0009 192.057 70.3347 193.009 71.0023 193.719C71.677 194.429 72.5364 194.784 73.5804 194.784C74.2054 194.784 74.8411 194.624 75.4874 194.305C76.1408 193.985 76.6877 193.495 77.128 192.835C77.5755 192.174 77.7992 191.332 77.7992 190.31ZM96.5092 184.301L94.2507 184.94C94.1087 184.564 93.8991 184.198 93.6222 183.843C93.3523 183.481 92.983 183.183 92.5142 182.948C92.0455 182.714 91.4453 182.597 90.7138 182.597C89.7124 182.597 88.8778 182.827 88.2102 183.289C87.5497 183.744 87.2195 184.322 87.2195 185.026C87.2195 185.651 87.4467 186.144 87.9013 186.506C88.3558 186.869 89.0661 187.17 90.032 187.412L92.4609 188.009C93.924 188.364 95.0142 188.907 95.7315 189.638C96.4489 190.363 96.8075 191.297 96.8075 192.44C96.8075 193.378 96.5376 194.216 95.9979 194.955C95.4652 195.693 94.7195 196.276 93.7607 196.702C92.8018 197.128 91.6868 197.341 90.4155 197.341C88.7464 197.341 87.3651 196.979 86.2713 196.254C85.1776 195.53 84.4851 194.472 84.1939 193.08L86.5803 192.483C86.8075 193.364 87.2372 194.024 87.8693 194.464C88.5085 194.905 89.343 195.125 90.3729 195.125C91.5447 195.125 92.4751 194.876 93.1641 194.379C93.8601 193.875 94.2081 193.271 94.2081 192.568C94.2081 192 94.0092 191.524 93.6115 191.141C93.2138 190.75 92.603 190.459 91.7791 190.267L89.0518 189.628C87.5533 189.273 86.4524 188.722 85.7493 187.977C85.0533 187.224 84.7053 186.283 84.7053 185.153C84.7053 184.23 84.9645 183.413 85.483 182.703C86.0085 181.993 86.7223 181.435 87.6243 181.031C88.5334 180.626 89.5632 180.423 90.7138 180.423C92.3331 180.423 93.6044 180.778 94.5277 181.489C95.4581 182.199 96.1186 183.136 96.5092 184.301ZM107.709 180.636V182.767H99.2285V180.636H107.709ZM101.7 176.716H104.214V192.312C104.214 193.023 104.317 193.555 104.523 193.911C104.736 194.259 105.006 194.493 105.333 194.614C105.667 194.727 106.018 194.784 106.388 194.784C106.665 194.784 106.892 194.77 107.069 194.741C107.247 194.706 107.389 194.678 107.496 194.656L108.007 196.915C107.836 196.979 107.599 197.043 107.293 197.107C106.988 197.178 106.601 197.213 106.132 197.213C105.422 197.213 104.726 197.06 104.044 196.755C103.369 196.45 102.808 195.984 102.361 195.359C101.92 194.734 101.7 193.946 101.7 192.994V176.716ZM119.885 197V195.082L127.087 187.199C127.932 186.276 128.628 185.473 129.175 184.791C129.722 184.102 130.127 183.456 130.39 182.852C130.66 182.241 130.795 181.602 130.795 180.935C130.795 180.168 130.61 179.504 130.241 178.942C129.878 178.381 129.381 177.948 128.749 177.643C128.117 177.337 127.407 177.185 126.618 177.185C125.78 177.185 125.049 177.359 124.424 177.707C123.806 178.048 123.327 178.527 122.986 179.145C122.652 179.763 122.485 180.487 122.485 181.318H119.971C119.971 180.04 120.265 178.918 120.855 177.952C121.444 176.986 122.247 176.233 123.263 175.693C124.285 175.153 125.432 174.884 126.704 174.884C127.982 174.884 129.115 175.153 130.102 175.693C131.089 176.233 131.863 176.961 132.425 177.877C132.986 178.793 133.266 179.812 133.266 180.935C133.266 181.737 133.121 182.522 132.829 183.289C132.545 184.049 132.048 184.898 131.338 185.835C130.635 186.766 129.658 187.902 128.408 189.244L123.508 194.486V194.656H133.65V197H119.885ZM137.069 192.526V190.352L146.657 175.182H148.234V178.548H147.169L139.925 190.011V190.182H152.836V192.526H137.069ZM147.339 197V191.865V190.853V175.182H149.854V197H147.339ZM165.309 197V180.636H167.738V183.193H167.951C168.292 182.32 168.842 181.641 169.602 181.158C170.362 180.668 171.275 180.423 172.34 180.423C173.42 180.423 174.318 180.668 175.036 181.158C175.76 181.641 176.325 182.32 176.729 183.193H176.9C177.319 182.348 177.947 181.677 178.786 181.18C179.624 180.675 180.629 180.423 181.8 180.423C183.263 180.423 184.46 180.881 185.391 181.798C186.321 182.707 186.786 184.124 186.786 186.048V197H184.272V186.048C184.272 184.841 183.942 183.978 183.281 183.46C182.621 182.941 181.843 182.682 180.948 182.682C179.798 182.682 178.906 183.03 178.274 183.726C177.642 184.415 177.326 185.288 177.326 186.347V197H174.769V185.793C174.769 184.862 174.467 184.113 173.864 183.545C173.26 182.969 172.482 182.682 171.531 182.682C170.877 182.682 170.266 182.856 169.698 183.204C169.137 183.552 168.683 184.035 168.335 184.653C167.994 185.263 167.823 185.97 167.823 186.773V197H165.309ZM191.383 197V180.636H193.897V197H191.383ZM192.662 177.909C192.172 177.909 191.749 177.742 191.394 177.408C191.046 177.075 190.872 176.673 190.872 176.205C190.872 175.736 191.046 175.335 191.394 175.001C191.749 174.667 192.172 174.5 192.662 174.5C193.152 174.5 193.571 174.667 193.919 175.001C194.274 175.335 194.451 175.736 194.451 176.205C194.451 176.673 194.274 177.075 193.919 177.408C193.571 177.742 193.152 177.909 192.662 177.909ZM201.017 187.156V197H198.502V180.636H200.931V183.193H201.144C201.528 182.362 202.11 181.695 202.892 181.19C203.673 180.679 204.681 180.423 205.917 180.423C207.025 180.423 207.994 180.651 208.825 181.105C209.656 181.553 210.303 182.234 210.764 183.151C211.226 184.06 211.457 185.21 211.457 186.602V197H208.943V186.773C208.943 185.487 208.609 184.486 207.941 183.768C207.274 183.044 206.357 182.682 205.193 182.682C204.39 182.682 203.673 182.856 203.041 183.204C202.416 183.552 201.922 184.06 201.56 184.727C201.198 185.395 201.017 186.205 201.017 187.156ZM226.364 190.31V180.636H228.878V197H226.364V194.23H226.193C225.81 195.061 225.213 195.768 224.403 196.35C223.594 196.925 222.571 197.213 221.335 197.213C220.312 197.213 219.403 196.989 218.608 196.542C217.813 196.087 217.188 195.406 216.733 194.496C216.278 193.58 216.051 192.426 216.051 191.034V180.636H218.565V190.864C218.565 192.057 218.899 193.009 219.567 193.719C220.241 194.429 221.101 194.784 222.145 194.784C222.77 194.784 223.406 194.624 224.052 194.305C224.705 193.985 225.252 193.495 225.692 192.835C226.14 192.174 226.364 191.332 226.364 190.31ZM240.599 180.636V182.767H232.119V180.636H240.599ZM234.591 176.716H237.105V192.312C237.105 193.023 237.208 193.555 237.414 193.911C237.627 194.259 237.897 194.493 238.224 194.614C238.557 194.727 238.909 194.784 239.278 194.784C239.555 194.784 239.782 194.77 239.96 194.741C240.138 194.706 240.28 194.678 240.386 194.656L240.898 196.915C240.727 196.979 240.489 197.043 240.184 197.107C239.878 197.178 239.491 197.213 239.023 197.213C238.312 197.213 237.616 197.06 236.934 196.755C236.26 196.45 235.699 195.984 235.251 195.359C234.811 194.734 234.591 193.946 234.591 192.994V176.716ZM251.066 197.341C249.49 197.341 248.129 196.993 246.986 196.297C245.85 195.594 244.972 194.614 244.355 193.357C243.744 192.092 243.438 190.622 243.438 188.946C243.438 187.27 243.744 185.793 244.355 184.514C244.972 183.229 245.832 182.227 246.933 181.51C248.041 180.786 249.333 180.423 250.811 180.423C251.663 180.423 252.504 180.565 253.335 180.849C254.166 181.134 254.923 181.595 255.605 182.234C256.286 182.866 256.83 183.705 257.235 184.749C257.639 185.793 257.842 187.078 257.842 188.605V189.67H245.228V187.497H255.285C255.285 186.574 255.1 185.75 254.731 185.026C254.369 184.301 253.85 183.729 253.176 183.31C252.508 182.891 251.72 182.682 250.811 182.682C249.809 182.682 248.943 182.93 248.211 183.428C247.487 183.918 246.929 184.557 246.539 185.345C246.148 186.134 245.953 186.979 245.953 187.881V189.33C245.953 190.565 246.166 191.613 246.592 192.472C247.025 193.325 247.625 193.974 248.392 194.422C249.159 194.862 250.051 195.082 251.066 195.082C251.727 195.082 252.323 194.99 252.856 194.805C253.396 194.614 253.861 194.33 254.252 193.953C254.642 193.57 254.944 193.094 255.157 192.526L257.586 193.207C257.33 194.031 256.901 194.756 256.297 195.381C255.693 195.999 254.948 196.482 254.06 196.83C253.172 197.17 252.174 197.341 251.066 197.341ZM273.257 184.301L270.999 184.94C270.857 184.564 270.647 184.198 270.37 183.843C270.1 183.481 269.731 183.183 269.262 182.948C268.794 182.714 268.193 182.597 267.462 182.597C266.46 182.597 265.626 182.827 264.958 183.289C264.298 183.744 263.968 184.322 263.968 185.026C263.968 185.651 264.195 186.144 264.649 186.506C265.104 186.869 265.814 187.17 266.78 187.412L269.209 188.009C270.672 188.364 271.762 188.907 272.48 189.638C273.197 190.363 273.556 191.297 273.556 192.44C273.556 193.378 273.286 194.216 272.746 194.955C272.213 195.693 271.468 196.276 270.509 196.702C269.55 197.128 268.435 197.341 267.164 197.341C265.494 197.341 264.113 196.979 263.019 196.254C261.926 195.53 261.233 194.472 260.942 193.08L263.328 192.483C263.556 193.364 263.985 194.024 264.617 194.464C265.257 194.905 266.091 195.125 267.121 195.125C268.293 195.125 269.223 194.876 269.912 194.379C270.608 193.875 270.956 193.271 270.956 192.568C270.956 192 270.757 191.524 270.36 191.141C269.962 190.75 269.351 190.459 268.527 190.267L265.8 189.628C264.301 189.273 263.2 188.722 262.497 187.977C261.801 187.224 261.453 186.283 261.453 185.153C261.453 184.23 261.713 183.413 262.231 182.703C262.757 181.993 263.47 181.435 264.372 181.031C265.281 180.626 266.311 180.423 267.462 180.423C269.081 180.423 270.352 180.778 271.276 181.489C272.206 182.199 272.867 183.136 273.257 184.301Z" fill="black"/>
</svg>
