<svg width="300" height="300" viewBox="0 0 300 300" fill="none" xmlns="http://www.w3.org/2000/svg">
<circle cx="150" cy="150" r="150" fill="#0B3C60"/>
<path d="M47.8551 143L41.8892 121.182H44.5739L49.1335 138.952H49.3466L53.9915 121.182H56.9744L61.6193 138.952H61.8324L66.392 121.182H69.0767L63.1108 143H60.3835L55.5682 125.614H55.3977L50.5824 143H47.8551ZM77.152 143.341C75.6747 143.341 74.3786 142.989 73.2635 142.286C72.1555 141.583 71.2891 140.599 70.6641 139.335C70.0462 138.071 69.7372 136.594 69.7372 134.903C69.7372 133.199 70.0462 131.711 70.6641 130.44C71.2891 129.168 72.1555 128.181 73.2635 127.478C74.3786 126.775 75.6747 126.423 77.152 126.423C78.6293 126.423 79.9219 126.775 81.0298 127.478C82.1449 128.181 83.0114 129.168 83.6293 130.44C84.2543 131.711 84.5668 133.199 84.5668 134.903C84.5668 136.594 84.2543 138.071 83.6293 139.335C83.0114 140.599 82.1449 141.583 81.0298 142.286C79.9219 142.989 78.6293 143.341 77.152 143.341ZM77.152 141.082C78.2741 141.082 79.1974 140.795 79.9219 140.219C80.6463 139.644 81.1825 138.888 81.5305 137.95C81.8786 137.013 82.0526 135.997 82.0526 134.903C82.0526 133.81 81.8786 132.79 81.5305 131.846C81.1825 130.901 80.6463 130.138 79.9219 129.555C79.1974 128.973 78.2741 128.682 77.152 128.682C76.0298 128.682 75.1065 128.973 74.3821 129.555C73.6577 130.138 73.1214 130.901 72.7734 131.846C72.4254 132.79 72.2514 133.81 72.2514 134.903C72.2514 135.997 72.4254 137.013 72.7734 137.95C73.1214 138.888 73.6577 139.644 74.3821 140.219C75.1065 140.795 76.0298 141.082 77.152 141.082ZM88.4047 143V126.636H90.8336V129.108H91.0041C91.3024 128.298 91.8422 127.641 92.6234 127.137C93.4047 126.633 94.2853 126.381 95.2654 126.381C95.4501 126.381 95.6809 126.384 95.9579 126.391C96.2349 126.398 96.4444 126.409 96.5865 126.423V128.98C96.5012 128.959 96.3059 128.927 96.0005 128.884C95.7022 128.835 95.3862 128.81 95.0524 128.81C94.2569 128.81 93.5467 128.977 92.9217 129.31C92.3038 129.637 91.8137 130.092 91.4515 130.674C91.0964 131.249 90.9189 131.906 90.9189 132.645V143H88.4047ZM101.911 137.034L101.868 133.923H102.379L109.538 126.636H112.649L105.021 134.349H104.808L101.911 137.034ZM99.5668 143V121.182H102.081V143H99.5668ZM109.964 143L103.572 134.903L105.362 133.156L113.161 143H109.964ZM127.476 130.301L125.218 130.94C125.075 130.564 124.866 130.198 124.589 129.843C124.319 129.481 123.95 129.183 123.481 128.948C123.012 128.714 122.412 128.597 121.681 128.597C120.679 128.597 119.845 128.827 119.177 129.289C118.517 129.744 118.186 130.322 118.186 131.026C118.186 131.651 118.414 132.144 118.868 132.506C119.323 132.869 120.033 133.17 120.999 133.412L123.428 134.009C124.891 134.364 125.981 134.907 126.698 135.638C127.416 136.363 127.774 137.297 127.774 138.44C127.774 139.378 127.504 140.216 126.965 140.955C126.432 141.693 125.686 142.276 124.727 142.702C123.769 143.128 122.654 143.341 121.382 143.341C119.713 143.341 118.332 142.979 117.238 142.254C116.144 141.53 115.452 140.472 115.161 139.08L117.547 138.483C117.774 139.364 118.204 140.024 118.836 140.464C119.475 140.905 120.31 141.125 121.34 141.125C122.512 141.125 123.442 140.876 124.131 140.379C124.827 139.875 125.175 139.271 125.175 138.568C125.175 138 124.976 137.524 124.578 137.141C124.181 136.75 123.57 136.459 122.746 136.267L120.019 135.628C118.52 135.273 117.419 134.722 116.716 133.977C116.02 133.224 115.672 132.283 115.672 131.153C115.672 130.23 115.931 129.413 116.45 128.703C116.975 127.993 117.689 127.435 118.591 127.031C119.5 126.626 120.53 126.423 121.681 126.423C123.3 126.423 124.571 126.778 125.494 127.489C126.425 128.199 127.085 129.136 127.476 130.301ZM146.644 143.341C145.167 143.341 143.871 142.989 142.756 142.286C141.648 141.583 140.781 140.599 140.156 139.335C139.538 138.071 139.229 136.594 139.229 134.903C139.229 133.199 139.538 131.711 140.156 130.44C140.781 129.168 141.648 128.181 142.756 127.478C143.871 126.775 145.167 126.423 146.644 126.423C148.121 126.423 149.414 126.775 150.522 127.478C151.637 128.181 152.504 129.168 153.121 130.44C153.746 131.711 154.059 133.199 154.059 134.903C154.059 136.594 153.746 138.071 153.121 139.335C152.504 140.599 151.637 141.583 150.522 142.286C149.414 142.989 148.121 143.341 146.644 143.341ZM146.644 141.082C147.766 141.082 148.69 140.795 149.414 140.219C150.138 139.644 150.675 138.888 151.023 137.95C151.371 137.013 151.545 135.997 151.545 134.903C151.545 133.81 151.371 132.79 151.023 131.846C150.675 130.901 150.138 130.138 149.414 129.555C148.69 128.973 147.766 128.682 146.644 128.682C145.522 128.682 144.599 128.973 143.874 129.555C143.15 130.138 142.614 130.901 142.266 131.846C141.918 132.79 141.744 133.81 141.744 134.903C141.744 135.997 141.918 137.013 142.266 137.95C142.614 138.888 143.15 139.644 143.874 140.219C144.599 140.795 145.522 141.082 146.644 141.082ZM170.692 126.636L164.64 143H162.084L156.032 126.636H158.76L163.277 139.676H163.447L167.964 126.636H170.692ZM180.285 143.341C178.708 143.341 177.348 142.993 176.205 142.297C175.068 141.594 174.191 140.614 173.573 139.357C172.963 138.092 172.657 136.622 172.657 134.946C172.657 133.27 172.963 131.793 173.573 130.514C174.191 129.229 175.051 128.227 176.151 127.51C177.259 126.786 178.552 126.423 180.029 126.423C180.882 126.423 181.723 126.565 182.554 126.849C183.385 127.134 184.142 127.595 184.823 128.234C185.505 128.866 186.048 129.705 186.453 130.749C186.858 131.793 187.061 133.078 187.061 134.605V135.67H174.447V133.497H184.504C184.504 132.574 184.319 131.75 183.95 131.026C183.588 130.301 183.069 129.729 182.394 129.31C181.727 128.891 180.938 128.682 180.029 128.682C179.028 128.682 178.161 128.93 177.43 129.428C176.705 129.918 176.148 130.557 175.757 131.345C175.367 132.134 175.171 132.979 175.171 133.881V135.33C175.171 136.565 175.384 137.613 175.811 138.472C176.244 139.325 176.844 139.974 177.611 140.422C178.378 140.862 179.269 141.082 180.285 141.082C180.945 141.082 181.542 140.99 182.075 140.805C182.615 140.614 183.08 140.33 183.47 139.953C183.861 139.57 184.163 139.094 184.376 138.526L186.805 139.207C186.549 140.031 186.119 140.756 185.516 141.381C184.912 141.999 184.166 142.482 183.279 142.83C182.391 143.17 181.393 143.341 180.285 143.341ZM190.885 143V126.636H193.314V129.108H193.485C193.783 128.298 194.323 127.641 195.104 127.137C195.885 126.633 196.766 126.381 197.746 126.381C197.931 126.381 198.161 126.384 198.438 126.391C198.715 126.398 198.925 126.409 199.067 126.423V128.98C198.982 128.959 198.786 128.927 198.481 128.884C198.183 128.835 197.867 128.81 197.533 128.81C196.737 128.81 196.027 128.977 195.402 129.31C194.784 129.637 194.294 130.092 193.932 130.674C193.577 131.249 193.399 131.906 193.399 132.645V143H190.885ZM215.3 143.384C214.263 143.384 213.322 143.188 212.477 142.798C211.632 142.4 210.961 141.828 210.463 141.082C209.966 140.33 209.718 139.42 209.718 138.355C209.718 137.418 209.902 136.658 210.272 136.075C210.641 135.486 211.135 135.024 211.752 134.69C212.37 134.357 213.052 134.108 213.798 133.945C214.551 133.774 215.307 133.639 216.067 133.54C217.061 133.412 217.868 133.316 218.485 133.252C219.11 133.181 219.565 133.064 219.849 132.901C220.14 132.737 220.286 132.453 220.286 132.048V131.963C220.286 130.912 219.998 130.095 219.423 129.513C218.855 128.93 217.992 128.639 216.834 128.639C215.634 128.639 214.693 128.902 214.011 129.428C213.329 129.953 212.85 130.514 212.573 131.111L210.186 130.259C210.613 129.264 211.181 128.49 211.891 127.936C212.608 127.375 213.39 126.984 214.235 126.764C215.087 126.537 215.925 126.423 216.749 126.423C217.275 126.423 217.878 126.487 218.56 126.615C219.249 126.736 219.913 126.988 220.552 127.371C221.199 127.755 221.735 128.334 222.161 129.108C222.587 129.882 222.8 130.919 222.8 132.219V143H220.286V140.784H220.158C219.988 141.139 219.703 141.519 219.306 141.924C218.908 142.329 218.379 142.673 217.718 142.957C217.058 143.241 216.252 143.384 215.3 143.384ZM215.684 141.125C216.678 141.125 217.516 140.93 218.198 140.539C218.887 140.148 219.405 139.644 219.753 139.026C220.108 138.408 220.286 137.759 220.286 137.077V134.776C220.179 134.903 219.945 135.021 219.583 135.127C219.228 135.227 218.816 135.315 218.347 135.393C217.885 135.464 217.434 135.528 216.994 135.585C216.561 135.635 216.209 135.678 215.939 135.713C215.286 135.798 214.675 135.937 214.107 136.129C213.546 136.313 213.091 136.594 212.743 136.97C212.402 137.339 212.232 137.844 212.232 138.483C212.232 139.357 212.555 140.017 213.201 140.464C213.855 140.905 214.682 141.125 215.684 141.125ZM229.903 133.156V143H227.389V126.636H229.818V129.193H230.031C230.415 128.362 230.997 127.695 231.778 127.19C232.559 126.679 233.568 126.423 234.804 126.423C235.912 126.423 236.881 126.651 237.712 127.105C238.543 127.553 239.189 128.234 239.651 129.151C240.113 130.06 240.344 131.21 240.344 132.602V143H237.829V132.773C237.829 131.487 237.496 130.486 236.828 129.768C236.16 129.044 235.244 128.682 234.079 128.682C233.277 128.682 232.559 128.856 231.927 129.204C231.302 129.552 230.809 130.06 230.447 130.727C230.084 131.395 229.903 132.205 229.903 133.156ZM245.971 149.136C245.545 149.136 245.165 149.101 244.831 149.03C244.498 148.966 244.267 148.902 244.139 148.838L244.778 146.622C245.389 146.778 245.929 146.835 246.397 146.793C246.866 146.75 247.282 146.54 247.644 146.164C248.013 145.795 248.35 145.195 248.656 144.364L249.125 143.085L243.074 126.636H245.801L250.318 139.676H250.488L255.005 126.636H257.733L250.787 145.386C250.474 146.232 250.087 146.931 249.625 147.485C249.164 148.046 248.627 148.462 248.017 148.732C247.413 149.001 246.731 149.136 245.971 149.136ZM67.5053 166.301L65.2468 166.94C65.1048 166.564 64.8952 166.198 64.6183 165.843C64.3484 165.481 63.979 165.183 63.5103 164.948C63.0415 164.714 62.4414 164.597 61.7099 164.597C60.7085 164.597 59.8739 164.827 59.2063 165.289C58.5458 165.744 58.2156 166.322 58.2156 167.026C58.2156 167.651 58.4428 168.144 58.8974 168.506C59.3519 168.869 60.0621 169.17 61.0281 169.412L63.457 170.009C64.9201 170.364 66.0103 170.907 66.7276 171.638C67.445 172.363 67.8036 173.297 67.8036 174.44C67.8036 175.378 67.5337 176.216 66.994 176.955C66.4613 177.693 65.7156 178.276 64.7567 178.702C63.7979 179.128 62.6829 179.341 61.4116 179.341C59.7425 179.341 58.3612 178.979 57.2674 178.254C56.1737 177.53 55.4812 176.472 55.19 175.08L57.5763 174.483C57.8036 175.364 58.2333 176.024 58.8654 176.464C59.5046 176.905 60.3391 177.125 61.369 177.125C62.5408 177.125 63.4712 176.876 64.1602 176.379C64.8562 175.875 65.2042 175.271 65.2042 174.568C65.2042 174 65.0053 173.524 64.6076 173.141C64.2099 172.75 63.5991 172.459 62.7752 172.267L60.0479 171.628C58.5494 171.273 57.4485 170.722 56.7454 169.977C56.0494 169.224 55.7013 168.283 55.7013 167.153C55.7013 166.23 55.9606 165.413 56.479 164.703C57.0046 163.993 57.7184 163.435 58.6204 163.031C59.5295 162.626 60.5593 162.423 61.7099 162.423C63.3292 162.423 64.6005 162.778 65.5238 163.489C66.4542 164.199 67.1147 165.136 67.5053 166.301ZM74.1025 169.156V179H71.5882V157.182H74.1025V165.193H74.3155C74.699 164.348 75.2743 163.677 76.0414 163.18C76.8155 162.675 77.8453 162.423 79.1309 162.423C80.2459 162.423 81.2225 162.647 82.0605 163.094C82.8986 163.535 83.5485 164.213 84.0101 165.129C84.4789 166.038 84.7132 167.196 84.7132 168.602V179H82.199V168.773C82.199 167.473 81.8617 166.468 81.187 165.758C80.5194 165.04 79.5925 164.682 78.4064 164.682C77.5826 164.682 76.8439 164.856 76.1905 165.204C75.5442 165.552 75.0328 166.06 74.6564 166.727C74.2871 167.395 74.1025 168.205 74.1025 169.156ZM94.1282 179.384C93.0913 179.384 92.1502 179.188 91.305 178.798C90.4599 178.4 89.7887 177.828 89.2915 177.082C88.7944 176.33 88.5458 175.42 88.5458 174.355C88.5458 173.418 88.7305 172.658 89.0998 172.075C89.4691 171.486 89.9627 171.024 90.5806 170.69C91.1985 170.357 91.8803 170.108 92.6261 169.945C93.3789 169.774 94.1353 169.639 94.8952 169.54C95.8896 169.412 96.6957 169.316 97.3136 169.252C97.9386 169.181 98.3931 169.064 98.6772 168.901C98.9684 168.737 99.114 168.453 99.114 168.048V167.963C99.114 166.912 98.8263 166.095 98.2511 165.513C97.6829 164.93 96.82 164.639 95.6623 164.639C94.462 164.639 93.521 164.902 92.8391 165.428C92.1573 165.953 91.6779 166.514 91.4009 167.111L89.0146 166.259C89.4407 165.264 90.0089 164.49 90.7191 163.936C91.4364 163.375 92.2177 162.984 93.0629 162.764C93.9151 162.537 94.7532 162.423 95.5771 162.423C96.1026 162.423 96.7063 162.487 97.3881 162.615C98.0771 162.736 98.7411 162.988 99.3803 163.371C100.027 163.755 100.563 164.334 100.989 165.108C101.415 165.882 101.628 166.919 101.628 168.219V179H99.114V176.784H98.9862C98.8157 177.139 98.5316 177.519 98.1339 177.924C97.7362 178.329 97.207 178.673 96.5465 178.957C95.886 179.241 95.0799 179.384 94.1282 179.384ZM94.5117 177.125C95.506 177.125 96.3441 176.93 97.0259 176.539C97.7148 176.148 98.2333 175.644 98.5813 175.026C98.9364 174.408 99.114 173.759 99.114 173.077V170.776C99.0075 170.903 98.7731 171.021 98.4109 171.127C98.0558 171.227 97.6438 171.315 97.1751 171.393C96.7134 171.464 96.2624 171.528 95.8221 171.585C95.3888 171.635 95.0373 171.678 94.7674 171.713C94.114 171.798 93.5032 171.937 92.935 172.129C92.3739 172.313 91.9194 172.594 91.5714 172.97C91.2305 173.339 91.06 173.844 91.06 174.483C91.06 175.357 91.3832 176.017 92.0295 176.464C92.6829 176.905 93.5103 177.125 94.5117 177.125ZM106.217 185.136V162.636H108.646V165.236H108.944C109.129 164.952 109.385 164.589 109.711 164.149C110.045 163.702 110.521 163.304 111.139 162.956C111.764 162.601 112.609 162.423 113.675 162.423C115.052 162.423 116.267 162.768 117.318 163.457C118.369 164.146 119.189 165.122 119.779 166.386C120.368 167.651 120.663 169.142 120.663 170.861C120.663 172.594 120.368 174.096 119.779 175.367C119.189 176.631 118.373 177.612 117.329 178.308C116.285 178.996 115.081 179.341 113.717 179.341C112.666 179.341 111.824 179.167 111.192 178.819C110.56 178.464 110.074 178.062 109.733 177.615C109.392 177.161 109.129 176.784 108.944 176.486H108.731V185.136H106.217ZM108.689 170.818C108.689 172.054 108.87 173.144 109.232 174.089C109.594 175.026 110.123 175.761 110.819 176.294C111.515 176.82 112.368 177.082 113.376 177.082C114.427 177.082 115.305 176.805 116.008 176.251C116.718 175.69 117.251 174.937 117.606 173.993C117.968 173.041 118.149 171.983 118.149 170.818C118.149 169.668 117.971 168.631 117.616 167.707C117.268 166.777 116.739 166.042 116.029 165.502C115.326 164.955 114.442 164.682 113.376 164.682C112.354 164.682 111.494 164.941 110.798 165.46C110.102 165.971 109.577 166.688 109.221 167.612C108.866 168.528 108.689 169.597 108.689 170.818ZM131.359 179.341C129.782 179.341 128.422 178.993 127.279 178.297C126.143 177.594 125.265 176.614 124.648 175.357C124.037 174.092 123.731 172.622 123.731 170.946C123.731 169.27 124.037 167.793 124.648 166.514C125.265 165.229 126.125 164.227 127.226 163.51C128.334 162.786 129.626 162.423 131.104 162.423C131.956 162.423 132.797 162.565 133.628 162.849C134.459 163.134 135.216 163.595 135.898 164.234C136.579 164.866 137.123 165.705 137.528 166.749C137.932 167.793 138.135 169.078 138.135 170.605V171.67H125.521V169.497H135.578C135.578 168.574 135.393 167.75 135.024 167.026C134.662 166.301 134.143 165.729 133.469 165.31C132.801 164.891 132.013 164.682 131.104 164.682C130.102 164.682 129.236 164.93 128.504 165.428C127.78 165.918 127.222 166.557 126.831 167.345C126.441 168.134 126.246 168.979 126.246 169.881V171.33C126.246 172.565 126.459 173.613 126.885 174.472C127.318 175.325 127.918 175.974 128.685 176.422C129.452 176.862 130.344 177.082 131.359 177.082C132.02 177.082 132.616 176.99 133.149 176.805C133.689 176.614 134.154 176.33 134.545 175.953C134.935 175.57 135.237 175.094 135.45 174.526L137.879 175.207C137.623 176.031 137.194 176.756 136.59 177.381C135.986 177.999 135.241 178.482 134.353 178.83C133.465 179.17 132.467 179.341 131.359 179.341ZM157.045 179.341C155.567 179.341 154.271 178.989 153.156 178.286C152.048 177.583 151.182 176.599 150.557 175.335C149.939 174.071 149.63 172.594 149.63 170.903C149.63 169.199 149.939 167.711 150.557 166.44C151.182 165.168 152.048 164.181 153.156 163.478C154.271 162.775 155.567 162.423 157.045 162.423C158.522 162.423 159.814 162.775 160.922 163.478C162.037 164.181 162.904 165.168 163.522 166.44C164.147 167.711 164.459 169.199 164.459 170.903C164.459 172.594 164.147 174.071 163.522 175.335C162.904 176.599 162.037 177.583 160.922 178.286C159.814 178.989 158.522 179.341 157.045 179.341ZM157.045 177.082C158.167 177.082 159.09 176.795 159.814 176.219C160.539 175.644 161.075 174.888 161.423 173.95C161.771 173.013 161.945 171.997 161.945 170.903C161.945 169.81 161.771 168.79 161.423 167.846C161.075 166.901 160.539 166.138 159.814 165.555C159.09 164.973 158.167 164.682 157.045 164.682C155.922 164.682 154.999 164.973 154.275 165.555C153.55 166.138 153.014 166.901 152.666 167.846C152.318 168.79 152.144 169.81 152.144 170.903C152.144 171.997 152.318 173.013 152.666 173.95C153.014 174.888 153.55 175.644 154.275 176.219C154.999 176.795 155.922 177.082 157.045 177.082ZM175.584 162.636V164.767H166.763V162.636H175.584ZM169.405 179V160.378C169.405 159.44 169.625 158.659 170.066 158.034C170.506 157.409 171.078 156.94 171.781 156.628C172.484 156.315 173.226 156.159 174.007 156.159C174.625 156.159 175.13 156.209 175.52 156.308C175.911 156.408 176.202 156.5 176.394 156.585L175.669 158.759C175.542 158.716 175.364 158.663 175.137 158.599C174.917 158.535 174.625 158.503 174.263 158.503C173.432 158.503 172.832 158.712 172.463 159.131C172.1 159.55 171.919 160.165 171.919 160.974V179H169.405ZM194.832 162.636V164.767H186.011V162.636H194.832ZM188.653 179V160.378C188.653 159.44 188.873 158.659 189.314 158.034C189.754 157.409 190.326 156.94 191.029 156.628C191.732 156.315 192.474 156.159 193.256 156.159C193.873 156.159 194.378 156.209 194.768 156.308C195.159 156.408 195.45 156.5 195.642 156.585L194.917 158.759C194.79 158.716 194.612 158.663 194.385 158.599C194.165 158.535 193.873 158.503 193.511 158.503C192.68 158.503 192.08 158.712 191.711 159.131C191.349 159.55 191.167 160.165 191.167 160.974V179H188.653ZM198.356 179V162.636H200.87V179H198.356ZM199.634 159.909C199.144 159.909 198.722 159.742 198.366 159.408C198.018 159.075 197.844 158.673 197.844 158.205C197.844 157.736 198.018 157.335 198.366 157.001C198.722 156.667 199.144 156.5 199.634 156.5C200.124 156.5 200.543 156.667 200.891 157.001C201.246 157.335 201.424 157.736 201.424 158.205C201.424 158.673 201.246 159.075 200.891 159.408C200.543 159.742 200.124 159.909 199.634 159.909ZM212.336 179.341C210.759 179.341 209.399 178.993 208.256 178.297C207.119 177.594 206.242 176.614 205.624 175.357C205.013 174.092 204.708 172.622 204.708 170.946C204.708 169.27 205.013 167.793 205.624 166.514C206.242 165.229 207.101 164.227 208.202 163.51C209.31 162.786 210.603 162.423 212.08 162.423C212.932 162.423 213.774 162.565 214.605 162.849C215.436 163.134 216.192 163.595 216.874 164.234C217.556 164.866 218.099 165.705 218.504 166.749C218.909 167.793 219.111 169.078 219.111 170.605V171.67H206.498V169.497H216.555C216.555 168.574 216.37 167.75 216.001 167.026C215.638 166.301 215.12 165.729 214.445 165.31C213.778 164.891 212.989 164.682 212.08 164.682C211.079 164.682 210.212 164.93 209.481 165.428C208.756 165.918 208.199 166.557 207.808 167.345C207.417 168.134 207.222 168.979 207.222 169.881V171.33C207.222 172.565 207.435 173.613 207.861 174.472C208.295 175.325 208.895 175.974 209.662 176.422C210.429 176.862 211.32 177.082 212.336 177.082C212.996 177.082 213.593 176.99 214.126 176.805C214.665 176.614 215.131 176.33 215.521 175.953C215.912 175.57 216.214 175.094 216.427 174.526L218.856 175.207C218.6 176.031 218.17 176.756 217.567 177.381C216.963 177.999 216.217 178.482 215.329 178.83C214.442 179.17 213.444 179.341 212.336 179.341ZM225.45 157.182V179H222.936V157.182H225.45ZM236.234 179.341C234.87 179.341 233.667 178.996 232.623 178.308C231.578 177.612 230.762 176.631 230.172 175.367C229.583 174.096 229.288 172.594 229.288 170.861C229.288 169.142 229.583 167.651 230.172 166.386C230.762 165.122 231.582 164.146 232.633 163.457C233.684 162.768 234.899 162.423 236.277 162.423C237.342 162.423 238.184 162.601 238.801 162.956C239.426 163.304 239.902 163.702 240.229 164.149C240.563 164.589 240.822 164.952 241.007 165.236H241.22V157.182H243.734V179H241.305V176.486H241.007C240.822 176.784 240.559 177.161 240.218 177.615C239.877 178.062 239.391 178.464 238.759 178.819C238.127 179.167 237.285 179.341 236.234 179.341ZM236.575 177.082C237.583 177.082 238.436 176.82 239.132 176.294C239.828 175.761 240.357 175.026 240.719 174.089C241.081 173.144 241.262 172.054 241.262 170.818C241.262 169.597 241.085 168.528 240.73 167.612C240.375 166.688 239.849 165.971 239.153 165.46C238.457 164.941 237.598 164.682 236.575 164.682C235.51 164.682 234.622 164.955 233.912 165.502C233.208 166.042 232.679 166.777 232.324 167.707C231.976 168.631 231.802 169.668 231.802 170.818C231.802 171.983 231.98 173.041 232.335 173.993C232.697 174.937 233.23 175.69 233.933 176.251C234.643 176.805 235.524 177.082 236.575 177.082Z" fill="white"/>
</svg>
