<svg width="1553" height="490" viewBox="0 0 1553 490" fill="none" xmlns="http://www.w3.org/2000/svg">
<g clip-path="url(#clip0_156_5)">
<path d="M1553 196L1466.72 228.7C1380.44 261 1207.89 327 1035.33 334.8C862.778 343 690.222 294 517.667 277.7C345.111 261 172.556 278 -4.95911e-05 285.8C-172.556 294 -345.111 294 -517.667 277.7C-690.222 261 -862.778 229 -1035.33 236.8C-1207.89 245 -1380.44 294 -1553 302.2C-1725.56 310 -1898.11 278 -2070.67 294C-2243.22 310 -2415.78 376 -2588.33 334.8C-2760.89 294 -2933.44 147 -3106 81.7002C-3278.56 16.0002 -3451.11 33.0002 -3623.67 81.7002C-3796.22 131 -3968.78 212 -4141.33 245C-4313.89 278 -4486.44 261 -4659 245C-4831.56 229 -5004.11 212 -5176.67 220.5C-5349.22 229 -5521.78 261 -5694.33 302.2C-5866.89 343 -6039.44 392 -6212 375.7C-6384.56 359 -6557.11 278 -6729.67 212.3C-6902.22 147 -7074.78 98.0002 -7247.33 130.7C-7419.89 163 -7592.44 278 -7765 343C-7937.56 408 -8110.11 425 -8282.67 359.3C-8455.22 294 -8627.78 147 -8800.33 114.3C-8972.89 82.0002 -9145.44 163 -9318 163.3C-9490.56 163 -9663.11 82.0002 -9835.67 57.2002C-10008.2 33.0002 -10180.8 65.0002 -10353.3 98.0002C-10525.9 131 -10698.4 163 -10784.7 179.7L-10871 196V490H-10784.7C-10698.4 490 -10525.9 490 -10353.3 490C-10180.8 490 -10008.2 490 -9835.67 490C-9663.11 490 -9490.56 490 -9318 490C-9145.44 490 -8972.89 490 -8800.33 490C-8627.78 490 -8455.22 490 -8282.67 490C-8110.11 490 -7937.56 490 -7765 490C-7592.44 490 -7419.89 490 -7247.33 490C-7074.78 490 -6902.22 490 -6729.67 490C-6557.11 490 -6384.56 490 -6212 490C-6039.44 490 -5866.89 490 -5694.33 490C-5521.78 490 -5349.22 490 -5176.67 490C-5004.11 490 -4831.56 490 -4659 490C-4486.44 490 -4313.89 490 -4141.33 490C-3968.78 490 -3796.22 490 -3623.67 490C-3451.11 490 -3278.56 490 -3106 490C-2933.44 490 -2760.89 490 -2588.33 490C-2415.78 490 -2243.22 490 -2070.67 490C-1898.11 490 -1725.56 490 -1553 490C-1380.44 490 -1207.89 490 -1035.33 490C-862.778 490 -690.222 490 -517.667 490C-345.111 490 -172.556 490 -4.95911e-05 490C172.556 490 345.111 490 517.667 490C690.222 490 862.778 490 1035.33 490C1207.89 490 1380.44 490 1466.72 490H1553V196Z" fill="url(#paint0_linear_156_5)"/>
</g>
<defs>
<linearGradient id="paint0_linear_156_5" x1="1553" y1="490" x2="1553" y2="38.5659" gradientUnits="userSpaceOnUse">
<stop stop-color="#F36A3E"/>
<stop offset="1" stop-color="#FFB30B"/>
</linearGradient>
<clipPath id="clip0_156_5">
<rect width="1553" height="490" fill="white" transform="matrix(-1 0 0 1 1553 0)"/>
</clipPath>
</defs>
</svg>
