<svg width="1415" height="339" viewBox="0 0 1415 339" fill="none" xmlns="http://www.w3.org/2000/svg">
<g clip-path="url(#clip0_156_3)">
<path d="M1415 203.4L1336.39 180.777C1257.78 158.431 1100.56 112.769 943.333 107.373C786.111 101.7 628.889 135.6 471.667 146.877C314.444 158.431 157.222 146.669 -9.53674e-06 141.273C-157.222 135.6 -314.444 135.6 -471.667 146.877C-628.889 158.431 -786.111 180.569 -943.333 175.173C-1100.56 169.5 -1257.78 135.6 -1415 129.927C-1572.22 124.531 -1729.44 146.669 -1886.67 135.6C-2043.89 124.531 -2201.11 78.8694 -2358.33 107.373C-2515.56 135.6 -2672.78 237.3 -2830 282.477C-2987.22 327.931 -3144.44 316.169 -3301.67 282.477C-3458.89 248.369 -3616.11 192.331 -3773.33 169.5C-3930.56 146.669 -4087.78 158.431 -4245 169.5C-4402.22 180.569 -4559.44 192.331 -4716.67 186.45C-4873.89 180.569 -5031.11 158.431 -5188.33 129.927C-5345.56 101.7 -5502.78 67.8 -5660 79.077C-5817.22 90.6306 -5974.44 146.669 -6131.67 192.123C-6288.89 237.3 -6446.11 271.2 -6603.33 248.577C-6760.56 226.231 -6917.78 146.669 -7075 101.7C-7232.22 56.7306 -7389.44 44.9694 -7546.67 90.4231C-7703.89 135.6 -7861.11 237.3 -8018.33 259.923C-8175.56 282.269 -8332.78 226.231 -8490 226.023C-8647.22 226.231 -8804.44 282.269 -8961.67 299.427C-9118.89 316.169 -9276.11 294.031 -9433.33 271.2C-9590.56 248.369 -9747.78 226.231 -9826.39 214.677L-9905 203.4V2.76278e-05H-9826.39C-9747.78 2.76278e-05 -9590.56 2.76278e-05 -9433.33 2.76278e-05C-9276.11 2.76278e-05 -9118.89 2.76278e-05 -8961.67 2.76278e-05C-8804.44 2.76278e-05 -8647.22 2.76278e-05 -8490 2.76278e-05C-8332.78 2.76278e-05 -8175.56 2.76278e-05 -8018.33 2.76278e-05C-7861.11 2.76278e-05 -7703.89 2.76278e-05 -7546.67 2.76278e-05C-7389.44 2.76278e-05 -7232.22 2.76278e-05 -7075 2.76278e-05C-6917.78 2.76278e-05 -6760.56 2.76278e-05 -6603.33 2.76278e-05C-6446.11 2.76278e-05 -6288.89 2.76278e-05 -6131.67 2.76278e-05C-5974.44 2.76278e-05 -5817.22 2.76278e-05 -5660 2.76278e-05C-5502.78 2.76278e-05 -5345.56 2.76278e-05 -5188.33 2.76278e-05C-5031.11 2.76278e-05 -4873.89 2.76278e-05 -4716.67 2.76278e-05C-4559.44 2.76278e-05 -4402.22 2.76278e-05 -4245 2.76278e-05C-4087.78 2.76278e-05 -3930.56 2.76278e-05 -3773.33 2.76278e-05C-3616.11 2.76278e-05 -3458.89 2.76278e-05 -3301.67 2.76278e-05C-3144.44 2.76278e-05 -2987.22 2.76278e-05 -2830 2.76278e-05C-2672.78 2.76278e-05 -2515.56 2.76278e-05 -2358.33 2.76278e-05C-2201.11 2.76278e-05 -2043.89 2.76278e-05 -1886.67 2.76278e-05C-1729.44 2.76278e-05 -1572.22 2.76278e-05 -1415 2.76278e-05C-1257.78 2.76278e-05 -1100.56 2.76278e-05 -943.333 2.76278e-05C-786.111 2.76278e-05 -628.889 2.76278e-05 -471.667 2.76278e-05C-314.444 2.76278e-05 -157.222 2.76278e-05 -9.53674e-06 2.76278e-05C157.222 2.76278e-05 314.444 2.76278e-05 471.667 2.76278e-05C628.889 2.76278e-05 786.111 2.76278e-05 943.333 2.76278e-05C1100.56 2.76278e-05 1257.78 2.76278e-05 1336.39 2.76278e-05H1415V203.4Z" fill="url(#paint0_linear_156_3)"/>
</g>
<defs>
<linearGradient id="paint0_linear_156_3" x1="1415" y1="3.05176e-05" x2="1415" y2="312.319" gradientUnits="userSpaceOnUse">
<stop stop-color="#F36A3E"/>
<stop offset="1" stop-color="#FFB30B"/>
</linearGradient>
<clipPath id="clip0_156_3">
<rect width="1415" height="339" fill="white" transform="translate(1415 339) rotate(-180)"/>
</clipPath>
</defs>
</svg>
